<mxfile host="app.diagrams.net" agent="Mozilla/5.0 (Windows NT 10.0; Win64; x64) AppleWebKit/537.36 (KHTML, like Gecko) Chrome/132.0.0.0 YaBrowser/25.2.0.0 Safari/537.36" version="26.2.6">
  <diagram id="C5RBs43oDa-KdzZeNtuy" name="Page-1">
    <mxGraphModel dx="2552" dy="2124" grid="1" gridSize="10" guides="1" tooltips="1" connect="1" arrows="1" fold="1" page="1" pageScale="1" pageWidth="827" pageHeight="1169" math="0" shadow="0">
      <root>
        <mxCell id="WIyWlLk6GJQsqaUBKTNV-0" />
        <mxCell id="WIyWlLk6GJQsqaUBKTNV-1" parent="WIyWlLk6GJQsqaUBKTNV-0" />
        <mxCell id="NsZ-KhTiiolm1iS4KSTE-0" value="&lt;span style=&quot;text-align: start; white-space-collapse: preserve; background-color: rgba(255, 255, 255, 0.1);&quot;&gt;&lt;font face=&quot;Helvetica&quot; style=&quot;color: rgb(0, 0, 0);&quot;&gt;employee(сотрудник)&lt;/font&gt;&lt;/span&gt;" style="swimlane;fontStyle=1;align=center;verticalAlign=top;childLayout=stackLayout;horizontal=1;startSize=26;horizontalStack=0;resizeParent=1;resizeParentMax=0;resizeLast=0;collapsible=1;marginBottom=0;whiteSpace=wrap;html=1;" vertex="1" parent="WIyWlLk6GJQsqaUBKTNV-1">
          <mxGeometry x="-130" y="86" width="390" height="164" as="geometry" />
        </mxCell>
        <mxCell id="NsZ-KhTiiolm1iS4KSTE-1" value="- id(идентификатор): int" style="text;strokeColor=none;fillColor=none;align=left;verticalAlign=top;spacingLeft=4;spacingRight=4;overflow=hidden;rotatable=0;points=[[0,0.5],[1,0.5]];portConstraint=eastwest;whiteSpace=wrap;html=1;" vertex="1" parent="NsZ-KhTiiolm1iS4KSTE-0">
          <mxGeometry y="26" width="390" height="26" as="geometry" />
        </mxCell>
        <mxCell id="NsZ-KhTiiolm1iS4KSTE-10" value="- name(имя): string" style="text;strokeColor=none;fillColor=none;align=left;verticalAlign=top;spacingLeft=4;spacingRight=4;overflow=hidden;rotatable=0;points=[[0,0.5],[1,0.5]];portConstraint=eastwest;whiteSpace=wrap;html=1;" vertex="1" parent="NsZ-KhTiiolm1iS4KSTE-0">
          <mxGeometry y="52" width="390" height="26" as="geometry" />
        </mxCell>
        <mxCell id="NsZ-KhTiiolm1iS4KSTE-9" value="- position(должность): string" style="text;strokeColor=none;fillColor=none;align=left;verticalAlign=top;spacingLeft=4;spacingRight=4;overflow=hidden;rotatable=0;points=[[0,0.5],[1,0.5]];portConstraint=eastwest;whiteSpace=wrap;html=1;" vertex="1" parent="NsZ-KhTiiolm1iS4KSTE-0">
          <mxGeometry y="78" width="390" height="26" as="geometry" />
        </mxCell>
        <mxCell id="NsZ-KhTiiolm1iS4KSTE-2" value="" style="line;strokeWidth=1;fillColor=none;align=left;verticalAlign=middle;spacingTop=-1;spacingLeft=3;spacingRight=3;rotatable=0;labelPosition=right;points=[];portConstraint=eastwest;strokeColor=inherit;" vertex="1" parent="NsZ-KhTiiolm1iS4KSTE-0">
          <mxGeometry y="104" width="390" height="8" as="geometry" />
        </mxCell>
        <mxCell id="NsZ-KhTiiolm1iS4KSTE-3" value="+ registedWorkTime(регистрация рабочего времени): int" style="text;strokeColor=none;fillColor=none;align=left;verticalAlign=top;spacingLeft=4;spacingRight=4;overflow=hidden;rotatable=0;points=[[0,0.5],[1,0.5]];portConstraint=eastwest;whiteSpace=wrap;html=1;" vertex="1" parent="NsZ-KhTiiolm1iS4KSTE-0">
          <mxGeometry y="112" width="390" height="26" as="geometry" />
        </mxCell>
        <mxCell id="NsZ-KhTiiolm1iS4KSTE-11" value="+ applyForLeave(подача заявления на отпуск): int" style="text;strokeColor=none;fillColor=none;align=left;verticalAlign=top;spacingLeft=4;spacingRight=4;overflow=hidden;rotatable=0;points=[[0,0.5],[1,0.5]];portConstraint=eastwest;whiteSpace=wrap;html=1;" vertex="1" parent="NsZ-KhTiiolm1iS4KSTE-0">
          <mxGeometry y="138" width="390" height="26" as="geometry" />
        </mxCell>
        <mxCell id="NsZ-KhTiiolm1iS4KSTE-4" value="" style="shape=image;verticalLabelPosition=bottom;labelBackgroundColor=default;verticalAlign=top;aspect=fixed;imageAspect=0;image=data:image/png,iVBORw0KGgoAAAANSUhEUgAAA18AAADGCAYAAAAtxzp/AAAAAXNSR0IArs4c6QAAAARnQU1BAACxjwv8YQUAAAAJcEhZcwAADsMAAA7DAcdvqGQAADcUSURBVHhe7d0/VuM6G8Dhl28tyRQcVhBWQKahop0ulKSZjpLuNqGEblqqaSZZAVkBZ4pJ9pJPsuTEliVbcmwT4Peck3uH4MjSqz+2Ytmc7RQBAAAAAPTqf/b/AAAAAIAeMfkCAAAAgAEw+QIAAACAATD5AgAAAIABMPkCAAAAgAEw+QIAAACAATD5AgAAAIABMPkCAAAAgAEw+QIAAACAATD5AgAAAIABMPkCAAAAgAEw+QIAAACAATD5AgAAAIABMPkCAAAAgAEw+QIAAACAATD5AgAAAIABMPkCAAAAgAEw+QIAAACAATD5AgAAAIABMPkCAAAAgAEw+QIAAACAATD5AgAAAIABMPkCAAAAgAEw+QIGtro9k7OzW1nZnwEAAPA1nOzka/t4KWe3MaenK7k9Uyezl4+yte+0sn2US52O+zo2XWB1W2pTv693sts9yZX9NQAAAL6GE5x8beXx8kzG87X9ud728UGe7b/bMfs7G8/lYqlPiouvpczsVkAb2ZcIU5FloV09MesCAAD4kk5o8mUnQWdjiZx3KSv5L35jD71Pvb9ZdnJcPSm+kqfXOxnZn4Ak20f5odrnbMlVLgAAAJzgla/JYiO73UYWE/tGjdXtVJ5nS1m2vDy1ffyhJl4TWWziTo6zqxi+e3XssrLLx+oCRfOZw5Kz/PPmvh//q5xOPik9vNzVmPt9hJZp5svenCWU1Tw034dUd79S8Xf1sbqUaqjqyxkbrzZl0or5ddPwhTVmP9s/L6KmXnKdMPOKSrfj2GrVdqpeHbQXzZu2fjnpp9ZBUrn8CdiYqd9XlhfHpu2LgVkKXWyXwW1rxg4AAPD5nNDkayR3rzt5vYu8zqROWqbPauL0s+01ha38eVmr2d6NfD/q0pY60Zr6Fj6ak7fx/KK05GyzOM9+e/WUv2cnmmoSmW9ziIE+iRvLXBaysb/bqZnm8zRwsvb823MiqPLx4Mmfjp8c9mny8SzThnvcrq71TPdZflfPIuW32s1k8bPFVZ7mckbFq2WZDt7kQdWZuSfLvDZqZ5V4R+5n81e3r3MZ2xPswyt8wj59K8RAvZYzla53QhUrpQ2ZK8D7cu2v+naRNydtvaR3PZdxZVIUWQdJ5VJS+kZq2q2p/XjHDgAA8GmpE4sTtNmp862dOsG2P7uWOzUF2E0W6tRI/zRT204W6lMpymnEUCeBO3USqT55kO1bJruJym8xLbPtZNecfLisJu3y/jT3/Wxfk9lu5uQhs1nsJmrbWUyMlrOIPJu4VfLrfNYXq4xnH7HlNJrahiOqTHl+/e0hlL+Syn5sPnWsnLib9OJisE+nkEYfsQ2mqaTkzcefdrUeU+ogqVyJfSMpbc92asvK2OLb1qRXHTsAAMDndbJPOwzTV5Sm8jxZyK/Yq2Q+23/yZv/ZWnb1TZ1SLX/JjX3LsFfVZvfSPovhK0nm6tOb/Ct9CX8u1zcTWb/8KV19yZa+za7l2v5ca3wuKgX5u7E/e13JT3XW7F5JWGWZbXMVMbWciaLKlJvIjacAUfkI7Ue1041z3+DVk75Stpb5j/xKmYmBqHqqXjUcyXdVr6pi5U9yHLqIbU952/6R7MLz+di+kYupgz77Rs/tMRccOwAAwGf24SZf5j6tmSzf/UEYdsnQbFl9UEfwxDKBnRyu52NnyZp6BZYqjb/fyKR0ImwmgbOam45K99aM52r60Gyk91NaemhOWGf3LeqkRTmbtCmTcSHfggWoTqyi9nPxzROTfNLyV7IkbQxC7WX07cL+K1EXse0sb3qJYmH/4xe52fiWGUfUQZ99Izltp1zZa9rwBNaasQMAAHxqH2vytboVdY4b/YCMWqNv6jRPn/9GXRKpyB72oe9j6fnsaZI9gMTed1J6vVavqo2+y42+ovKfnRVlk0D/Ax/yBxGU7uPZLNSkKkK2H33xy+5n9TuLRXE/+QTtwb1PJ3BynFTOgKPKlKC7/bS7ivIesT2ee8/Xvfwdq4lK6EEYEfrqG1p82m659Kv+T1QMNXYAAIDT84EmX/nN8eoESp+07b9lVifB2dtzGat/x98QfyXZKqLnh/SHGdglQ76lSZkjJ3aZVmmM5O5eFcouCVz9N8+WVVXzaB7Rn51gtrqCaK/c5PvJLns5+xndyety5lxBmMrbxJmidBGrzLFl0vyToe2/7NqPmIs/sfsZSXZR6O1faalbmb3K0xADs//CFaEhY5uat2j+5atRddBn3+isPQY0jR0AAOBT+0CTL/M0xPI3zOalzkP12Ux2FSL6aYnK1ZP+hrp4702MN3nQk8Dae87yiZ17YpmiZRpX16pMekmgXgoYeBqkXVp14Zwxm0ejxzksPbRLDn2XEK6eKnX1eq9PbYu6iJXSQZnUKbe8VG5ecp6KmbCf7B6h9Vzyiy0H+T2B+cl/XQzcba3BYtsib0eJqIO25YrpG53ELCRm7AAAAJ/ZB3zgRgzzmPfmv0N0JU96uVh21cyz7fZRLiuPKV/LWv9tsF/1V1fMxE7fD1JOd3XblKeDq596KZtKw83D6rbmCp85eXye6oeSBB6AYb/df34opJst6XSnDzVGd6IvJLw9PGQPP2n9xH+lXTkdXZRJ0VeTiivhVrdj87fg8vpO2Y+aIOkvBp6n5cex79MsBG3fXpwYmG3bL1HrIrb95C08cWusA6W3vqF00h694sYOAADweX3SyVcCvYRrl//NonwJl30FHqIwWfyKuFdGTezyv/9USHP6di7Rj+HI8qZOfO2Syn2+piL3NRkwT2XTFwq+B07yipNOm+bDuWwS71vS+1mv1zX7idSynGVdlEnfv7MUVWH7PEyf9XvF+3zS9qP/Ppn6VWmpbDVNzbYXKcfA3Fd2xD2OXcX26Ly5/UtNqC6WsqtM3GLqQOmtbyidxMwvbuwAAACf1dlOr1cC2ljdqhPSN1lsPA84+GD0QzTMH8Tu4GEuaIU6AAAAnx1XvtCSfQDKUX/LDAAAAPg6mHyhFfP31sr3LQEAAAAIY/KFJPnfuDJ/b+3jLzcEAAAAhsI9XwAAAAAwAK58AQAAAMAAmHwBAAAAwACYfAEAAADAAJh8AQAAAMAAmHwBAAAAwACYfAEAAADAAJh8AQAAAMAAmHwBAAAAwACYfA1odXsmZ2e3srI/AwDw3jg2AcBwTmfytbpVg78+ALivD3xAcMr0+3onu92TXNlfAwAwOI5NAPBuTu7K12ypDwL5ayOLybNMzy7lcWs3+CC2j5dyNhVZ7suykyeObACAd8SxCQDe14kvOxzJ3etSZrKW+X8f6PrX9lF+zNdqIsk3iQCAE8GxCQDe3Qe452ss5xP1v7d/Urz4ZdaoF1/u8sStPF6625zJrTOHy74FtJ9103S31Zr3q9L886KmizO5Tji6NaVb/f3hdVm4LNhFOsWYpDKfLadbjGMwbbsMplgWLSrenn2eXT5m7aWX+s3350tAy5f02DxoqZ8x+fDXQd3vct4475cald/3xa9NPeSq6VW3jdkmqS7cVyH2MXzp+KoqJlb+PIXj5aqLjfmdJ61A/9FC6VXje3iV06mOpW5s9vtI7hP1cYnZJrav1MfOt7qivtyx8Ytpxz7F/Lpp+MIcs58+jk1a17HVTJrlbdx+fVxs3c+ql5N+ah0klcufgI2Z+n1lDItN2xeDldyq7YvtMrhtzVgSUo1nNd2muqr+/vDK8xJbH+Z3vjj4f1fNfzm9vuLq3Tavf+f9pvhpvnJkr8TjIfr3MR+4oRrnVJb7JRP75YmlBraRv7KQTWFpxXIm8jz1HQje5EENambdu3ltFhO1rTMARe1X7fnvWmRyLuN9J8pf4c47fXPzWl5uefVU3Kd6Y3bIx+vdyGwUkb+odI41sWXZLETvopmKwfTZ/rsgMt7GrLSMZvd6J4fSdFu/e8+/PfWpDpAPnrLkIj9zda0aqzzL78rGK/mtNp0sfqZ9c719lEsd46y+y996Z+113w70lWZHdFzMycF4flGqi83i3P5ei9kmrk8cOHWvy7Ceyzh0chMS0W5jYjXOriwc8qPbWpyY2PgE+k9DenFjga6LscyLY6kaSCt9J9emTxyp876SaS53V2NyvdM/NqVLaVOhcb2LvMWOG5F1kFQuJamvJKbdmtqPdywJ6W48jz83aa6PVmNC8nlLisi4eo/TcfE76Oh4iH6pyjkNy9lOZ0edtJRtFjvVEXaThWp2dbLPT3a1m9m0ivtQnTbbry99Nbap3812bpZKKvvd7NQ4kKWpOrP66cCkV85jeB82HSeN/fuVQAUE4xJOx8SkodwBWXnyNIPxLqedx2Wi8tOmnuvy23392jQns93Ml9+szOp3Ou1C3aV/ZrlTh49q/cS0c6UcE5tWpS0ZpTqz27avh/q8xWyT0ifK5cwl9hGlqd3mmmKV/d6Jsz+PVfHxK6dl4lXtPzHpGeF4herCfT/bV5s+0RCXmG3yeqjk32mjwbQ8bTm23EZXY3KZya+/L4byV1LZj82njpXTRk16cTHYpxNTl0fEtq7uU/Lm40+7Wo8pdZBUrsS+kpS2Zzu1ZWWs8m1r0os8Fismjfq2HMq7+nSgrqr1kIuvj7gxIZd9Nt/WM/73FdfytjbP3r4ZFz9/PsPxxPs58StfasY/nst6spBfTVdlxucykbX83difPVb/qbTEt+RiIjffq+mbb0/e5F/dF0uh/epvUUpXX/Q3O/obnbXMf+TfRppvYWR27flmdiTfb9QQsH6RP3X7bxIRl+5s5d+bKvr52P4cQX9jm33R80tu7Fu1WpWnh/qVc7lW9bN++VP6Zjlb1qPq89r+XJbymSv5qUZM99vRVfa13Y14ihOgvzWbyrOnPRot6kyrxGUrf170VaF7CXfVmG066BPbP6J3E1+m2Bi0jFWUmNh4BPtPy/RKwt8S+/tOmz7Rha76Si613ImSxrDPdmzqIrY95S04bsTUQZ99pef2mEs9FkeNMX3UVUx9pIwJfY7rSlRcQ8fpDuKXfDzEEE5u8qUvHR+WQkzlbbFxlpAdlNbA6kmafb+ouAb24Vyl5X2c7oV8Cw4e1YNXzH7l4psnz3ln+StZktt/aqgId4rRtwv7rzRR+WukL2kX0tGvxsvWG9GrWi7CwXTYS/GzZe3Tto4vTw/1q4y/38ikNPCZg9Gs5oaKlM+M9LalpRNmIJ7d+/tDlV6eoQZ0vQwh0IdS6qw2LjEDfNQ2bfqE01bHL3KzSVlGGxuD5u2yE4D1XJKfD9TqAFnTf7o44Nq6WM/Hh9jmL71fj/Q+0WacqTq+rxS0KHeT9mPY5zo2dRLbzvIWO25E1EGffSU5bU+f0if29rd+ccfikt7G8yZxfSJ+TIgd//uKa81xulX8jj0eYggnN/malR41728w+YSqtAY2sE53dPe6T+uX/Mg+13bpa8p+63X0TZWju/xpzrphnc7ztH59+ep3NoDUzD1KVrd2wAmMSt2Wp1ny/kbf5UZ/W5yfaWcHo4byp3wm21YNpfnRIzG+B76171Y2uE+k9vg5cD2kc9e438vfsTroxHb02LhGxEqunvb3YuiY6Ze+B6wPTf2nKxP9BVgpvvnrtfqNd3KfaDHO+ET0lfxk7KGUtj058kgqd8BQfae7/bQ7Nr1HbI935Ljh0WdfiU/bLZd+ee5PLRhqLBlU7PEz+rjad1xrjtNJum/X6N4HfODGSv5TJzPZQBT8Nt9vdPcru5Fz3xn3/Aecrb4WvT/Zit3vSLIvI5ynM5bZb25G39S/RNbu15eW2X/dtzxF7eMSxQ5k7jKJouySvvfyuIe9FO9bSmF0WZ4u67doJHf3aui1SxuyZa2N5U/5jP02Ot82Jb6ZC7l/1TfmqiS8D5pRNn9lXdvGIuPS0JYzHWwT1yf8S05CouPaGCsjb1eLjTn4bXRemsTEpqip/6Sm59MqjTZ9oiBinPGL6CujO3lVnaF8BWEqbxOnfrqIXaaLMeyDHJuGjG1q3qKFxo2IOuizr3TWHgMaj8UBMfnqpa5i+oQWd/xMP65Gio5rzXG6k/ilHQ8xjI83+bKXYd1LxOYRum2t5aWyaNauZ87XByfsN7z0yKa57+hXki1T9nYKd9sGvcQlwfZR9EOa6pbcHbzJg9647l6+TsvTbf2WXF3LLPvGSi9pUCfcPyPKn/CZw9IJu2QiKr5l+/s5xtUJWOOBJzoudW05d+w2iX0iRkK7jTtI5yfCvxK/wY+JTS6i/ySlF9IyjTZ9ogNRfUVfmSx9K7yT13t9elPUReyUTsawD3RsGiy2LfJ2lIg6aFuuqL7SUXv0ihlLQmLy1UddxdSH0TgmJJ23pEiPq/84PXRbx2DUAHkasqfQ+J8wVuZ5Ioz9bOnz6r2J80gb8yQY31NsnM8qS/t0mkMSkfu1qp/3v+dNVzHb1jzhphKotPzVPQHH+8Qc+wQgN6a5LL9OGfLPFHdxiLcbB5OfQ/rx5fHm1+qjfrM0C9uZtMqfdePR5jM5/f5kUv58k2pMbPmK72X142+PberBuw9lOWvIh+LdximviVn5c/66j3+6kzfmnnYbF6uUPPo0x8akpbdp6j9aTKy1mnjZWFRipNpAcV9t2rc3LnZ/edrxsTP0PlL7ii5LJZ6R5TZC8fO042DfqTrUdXdjl1b9vP89b7qK2TayTo6IbX3dH5c3f9rVeoyvA6XHvpKUtrf8Jl7VbfW+3Xr3jSUhth6cfbYdz43weJRUH5b+XWhMqMRZs7Eupt9XXKvp+uIZHz9/Pt142p+95cFQPuDkS8kHovylG6XbYWx65Ve1cx4aa97o85enYcbst+DQCfNXqLHnnaHw8gwURnhgSstfOJ1qvs3LPxh78u572fLkaVfTMumU3o8sj3/AMfqo3yzNYv3YtlbMuzuot/nMnmfbJt6YuOVTr2r1Vw8msXExYtpyV9vorOlyOtvpl6ddl8W2W/NIaP3vxlgF6slbF0H15c7LW20L5nOh90PpGXabYMzcvqNf5fK0ad+huit+Ji12Sou+Yj7jO3FrLrdRE7+kvlN2KHt3Y1euGvtQjGPaT40jYttc9+3zFmp7bh0m1UGmn75iHBMz89lq3/L1FRPX+D4UUw8pdWW39TTc9PpQvGOCJz++l81jX3H1plvoy4cQxMUv33flVYplnlZNzNC705l8vZNwp0Kc6oDiymIcHGj79SnqN3gCg/ZOu92ipU/UVzg2vT/q4LS0qg/vmMD4j/f1AR+4AXwlW3nMFqUf8/eagK+AvgKgiDEBp4nJF3DCto8/ZL4e7qEFwEdFXwFQxJiAU8XkC0cayd1r/R/wy/7W2tGPi/9a8r/bM56LLDZD/u2br4J2+1nQVwAUNY8JjP94X2d67aH9NwAAAACgJ1z5AgAAAIABMPkCAAAAgAEw+QIAAACAATD5AgAAAIABMPkCAAAAgAEw+QIAAACAATD5AgAAAIABMPkCAAAAgAEw+QIAAACAATD5AoAerG7P5OzsVlb2ZwDAaWPcxhBOc/K1fZTLM90BnNflo2ztJgBwUla3pfHq9/VOdrsnubK/BgCcGMZtvIMTm3xt5fFSdYDxXC6WugMUX0uZ2a0A4JRsHy/lbCqyLIxZTxy9AeBkMW7jvZypxraz/35neuI1lvl6pjoC3zoA+CD0lXr7hREHbgD4ABi38Y5O5srX9vGHmnhNZLFJm3iZ9bnFV3mtbvX3h9flo1nEmH37YT/nbn9bSKxuLbDvdybdcHrF/Zat5FZtm+dPC25rL5k3bru/tG7eT0kvpJhGXdwO7JXNmu1MmuVt8uWmbfJcTc+f3+IrtV1oKXmLTdfXpnLF3wX3rd7R7aiYfjEfMTFoEoqv/3f2FVg+XM2Pv+wq5cZ2FBIb+1xMnrZ/XmQtM7lOGLii0g3Va9amLqVaRbFxaRe/2PpMjXFMfvb7DmU0H9+8eSmn7Y1phDbl38vz57zvSzM0VpTV920t+NlA+4ntf/44+LctaiqLm/8++khsGTVfOX3jYkqaRfV5bx6DvZ8PtLOjYqne8dWP+kRkv01J06+YjlsW35AQVd4PNG6bNMvbuONO23aY8+2jmI/UuvTmOTFPn9mJTL628udlLTK5ke8j+1YjU+HTt4VsCpeMl7NnmRYa+NVT/ruNLCbqjdlyv+3rXXFnb/KgOoBZ72teG/WB5+mhUV1d64WPz/K70npW8vtZZX/xszpxnNj8bRaid98tFYOp2nET/Q2P3i4re93kNjK9kua4Gbq+xjKXQn0tZ57tNH3185De7vVOws0ilGczoI3nF6W0Novz7Lddtouwunj21N5y2X2TU3lbbPbp6zYo8/H+BDY+Bj718T1w6lIvH17PZVw6uui20dyXjZR2FBJZp+pgOZVDTEycVJ6cg97mrx67zmW8P/GpO9CklDVFbFyOjV9MfWp9jAvK829PTFVbfPD0M1Uf47k6vSosYdd5OE5s+Qtqxt+s7ez7XeTS+oi+nSyyrfcTU4/Y/KRITLO5bvroyyrN5GOw5W1nfeRRO3YcaeMrj9ta6Lyow7x1db461DjxkamgnIDlTg1su8lCVXsk1T53qjGqT7o2O1XHO9WI1L+K7PuqNbhUo9BLL737L+/H5LOSxnKmtpns3I9nn8233Sx2quntih81+/WVoRoP37Ymb5PdRJUrvK3NsxOPlPRC4uNW/Tnnvh+OSZsYVOukqot20SZvMenGtbfqvpvK5MYlvH2IP50yX0x8+3JjeWC3LbTd0LbhNMriYx9Q6es2j7qenD5m0ivHKKWs/vgpnvEmNi6x2/nE1mdKjGPzk6U5me1mal+VdLOxVf1Of8ZtKxHjXqy08ufb+cffXJbH/Wdjxv3q/nJm20O7CJY1cLyqCLWzljENb1ctt5cnP32UMddUN24bPaj2ZR9f3k2accfg8uf97Swljyn1E0rXff/oOrdMOv7tw2UsqNSzLX8wZp52791HQhxD/cmzbXwc0/JWJ0snb+9Hnq9maTn7rSvDV3QaV762/+TN/jOO+eZfZteeb/5H8v1GNZv1i/xJ+jZiIjeey27m6sOb/MvSupKfqjW7376usssQ7lW7rfxThZqcj+3PHdPf7mRfcv2SG/tWlf5GZCrP+tuM2qtHSlR6PjFxC1+pKW+XKJhneyV1di+NF3AaxZTPozGeXbe3gu0fyS4ke9re6PuN2vNaXtI6h+OI+FbyltKXu2pHLetUG59n8fu7sT/nPH3s6kl/47qW+Y/8G9c+xi0tNi499MNgW+tjXDiXaxWj9cuf0jfY2fIhFdNr+/OgavqaLl/9+NviGNF73y4ItfX30kd+gmk21U0Pfbn1MTjUzt57vOnaVx2363SVt57PV1Fxmo+ab2Ina6GGMvp2Yf+V4kK+Vfu1dei05gBXXApmGv/s3j24bkRf1b4IJ2rpS8PFS976pQZS+1s/NdiaUbrmRlF9iV6nM5Nl08QrKr2QiLjZ+lrrZTFuWfV+W6nJc+0JUaq4dlEWE8+u21uhHY3nKoVA2xt9U3s+UlJ8nfY9fpGbTWFZY0pf7qwdpdVpaS29jW3FxTdPH8sPfn/VaKD0Mm4psXHpJH4N9bnXz7gw1v2hdDJhvgiYeW7cyE5g1nP5r7qG6Aix5Y8Zf1scI3ru201t/fiYOvHLXuHjXVTfSxSXZkPddN6X2x6Da9pZqzxG1E8n40gbX3TcrtNZ3ro9X+1n7P1cTmPyZQ8aa/+Z7GkZfRfdL5/zs+HV72zgqxz7Q+9XuPcQ6Ff92v/VrR1so0Zp3z1DZWnptTcp3qNQer0mX0EZKs9tdJq32Pam95fHs5f7C9sq5Ct73cvfsRqw296bonTZjurkNwyX1tK3im27b4LzifdDadG+PUnziI3LcfF75/rM+sNa5vlRPfsiIDDOXj3t75/Q9ahf+j6E46SWv2b8zU6cJhI4bypo17dT2k90Wz86pm789Kt6vIvNTy9l1KLrphvHHzOaj/Nx4upHG2ocTvVZx+1edX2+2svY+7mcyJWvK8musj4/xN0c2DBZ2+rrp7Xfkvj4O5pJqzgI229F7FKwbAmY55Jv6P2j2aUJvkvVZRdy/6pvulRZndbcdBmdXkhE3LqeXDfludP9xbYLKzqe3ba3Elv+N/8O1J5jvuGqcVR8naWUKX25s3qNif1K/lMHi+zAWHvleCTZl4tv/+wSFZ+4/JfKqo3u5FV14PI3o1N5mzinEbFx6Sx+Rf6lsVExbpWfkdzd60HN9of/5tmSw1B/yPe32JgThY3Oa6dC5Y8Yfzd/ZV2s7xg2ZlF9O7b9RLd1o/+YJuSnpzI21k1qX65z1DG4pp11mceiXsaRGF903K7TUR33cb6a10t/48THdjLLDq+e9Oy5uM62Tj5Zcw94Wn4/SmpD8q2V9z+F8bAUzC4Bc78u2D6KfviWbynMcd7kQSc8WcivyK9E9uuXx74TgPT0qmLiVldfqWLy3OX+4ttFWjw7bG8VYzlX45xvQG7zeN2qLuOb0pe72m9E7AOTVBO/svASi5T8u9ta+hvE/TeM5vV6rw+3RbFx6bLemvQ4Llxdqxac9wd1cP8Zasz5idivd/smvm78bXfCk9i3Y9pPQlsfJKZJ+VE6L2NM3bToy15dHIND7ayrPLqGHEeKvuq4XaeDOu7lfPX9x96TpxrF6bBPWFHNoPpEFP270tNTWj7dJ/iUKP258tNdTFrhJyFNJupznifJZJ9z3+/kaYe+/JhyVbctpmtjVXgvJb2QpLjldevGZTlryPtBWp6rZdaWMzftbtpFSt6S4mbVtTdvzGy8SzHxvZcJxyCsOb7efHn3ldCXI9tRSHzsPXnKnlZV/azmqzt/fSaUNcTz1KzouBwRv9j6TGrfkfnJ0ixsY9Iqfy57r7JNOb++MrifC0krf3E7T1/Jyu1vG5Vyu/u0MfPVa1MdZirtJ76tx8bUJ7ydW+74/AQdUUYTy+a68aap+GLkY+Kht3X3VT1m+ES1s4Q8xtePktJvY9OscYhV05jiKW9N26l+3v+eN10ltq4zlTapHB1H7bi8Zdu5+7f5KsYrpS59+/Z93rvvL+K0Jl+WqTjPq1JJ9sBXu03Od9JnHBqFbcT7V03DtR26PHh48uN72TymNGazrW+wqg7U3nTzTq5eOgQp6YWkx83drrptOCZt8uypj1AbOrJdpOQtPW6Kt70Z4ZhV4+0pphKOQb36+OYxqby8+4mpq1xzOwpJin2hz2QvnR/PQSlXLW8oTyll9fAdxDOxcWkXv9j6TIpxpjk/WZrFGHn6Q+lAHugvh7zlqv0zJL38BW5bUq9qGzJx8I8VrmrMvN3Kx9d+Ytp6dEz9mspSSjex71W0KuOhX8bUjdG+L+ftKZRm9f2ypnZ2KENcHpPqJ1Ntg+7n8zLWviLidcibu09PfhPbTjWPvhho7es642uTmdg4hvKltcmb5zO+l00nun30MPZ+Ric5+Rpac8P28Hak5saU7Sulw56wVnH7QPoqX3ftDak+e5s9BR8qxtlJGf0KeA/ZWBFxPsS43Yd3Pl/94mPvx3zU/LvbymO2SLaLvyMFNKG9Ab3QD1ao3LsJAOjVFx97mXy1sH38IfN13Y3eQHdob0A/sidyef/WDwCgL1997GXylSD/+xHjuchi4/sbDCO5e/X9wc2D0d1r3KNu8eU1tzcAx8jG4xP8W4HAV8D50Ht63/PVrz72num1h/bfAAAAAICecOULAAAAAAbA5AsAAAAABsDkCwAAAAAGwOQLAAAAAAbA5AsAAAAABsDkCwAAAAAGwOQLAAAAAAbA5AsAAAAABsDkCwAAAJ1Z3Z7J2dmtrOzPAA6YfAHvYXWrDkz64OS+OFgBAD4Y55j2+3onu92TXNlfAzhg8gW8o9lSH6Dy10YWk2eZnl3K49ZuAADACds+XsrZVGS5P5bt5IlZFxDE5As4GSO5e13KTNYy/4/rXwCAE7d9lB/ztcyWXOUCYp3M5Cv75qRwydp9XVYuBWzl8bK8za1zvmrSNMu4zPrj8LZGt2kWtw3xbROMxeWjyuFB2/RdwW3sMoJq7P3ceLhpVn9/eOX7CJbdvvLt6taT+35XTffwe2/590soDu83la8bYzmfqP+9/cvqOracsWXQYsoRrAenDeZSYuNLu9h3vGXRnPZY3efhVW6zzf0658tbMa3YvDXZ7yeUkbzuPPFuXX8qrcdCm3Hl7ek2Oq5V3v0WXqFYumUKh6W8XagsWjUvh23bxr9p/9XfH1552VPKXdy2xNPequW1rxZtKLUcbfWajyxGvlUE9eNBV2WP38a/L/0q1m+uKWZ1inly0/F1hZh9bf+8iJp6yXXCzCsq3Y7rVdvHO7Lfm3z641v3u1ywfp0+mVovfZT1IO08uGwlt2r76rgUqkd/G3d1kcapObErX7PSZWvz0lcCXLqCxzKXhWzy7ZYzeZ76KuFNHlRDMuuPzWuzmHi27SPNY7ixUHFYz2Uc6kidU/GYPtt/NzEdbvpWiJ16LWflJXRXT/nv9PI69cZsud/29W5kNso0t4Ora/3Ts/yu9kb5rbI9Wfy038KZgWQ8vyiluVmcZ7/12j7KpS57lj/7bZ7q5FM55He/RNBzYtOl+HI6fGWIrKeDmDaYmqY1sdtvFqKbQrNqe4xrTzp/sf1aZPN3XUjHN/b4VPMW7fm3+rRLtdkHX3pH1t/rndxFtKen6H4aEjuOaynjc2zZE/p8SvwjxoD4Me6YY0hde4vos52Wo624+uw+H3q/9eNB/2V3xfaX1P4fEtn2Io952Zg5OZexPRE+vMIn58eXwdVcryWR/b718bck5jiq9XGuqiQfYxLSbk3tp+0xc6+LNN7Ph1x2uLqdqu6gGrQ6mdgPhVdPqgOLrOf/OQ1NDQw3m9L649Hda2XbPtLslr0iMhATj4lMIvbpjZ1y9aQH67XMf/QwQbm6zg5Oz+6ouPqd5fvmu8nJ9vGHzNcTWWzKSyJGd3eBQVN16PFc1npyUKxg1RZ2pUXsI7m71xX+In+6LNz2j7zoY9nNdxPLyHKW+ctwfD1V22CbNLOD9cW30vZNUtpjkTd/wX7dTtu8yWQmM3Uy8+Ae1LI2oH6nK77g+PpTWrWnPh0xPiu+skf3+cT463bT3RjQ/hiS1t48x42hxrIanbTlFrz77Xg86Et3MYtse1HtZCv/3tT/9GTi4bxxQtVXvSfVa0q/72W8DJ3LHTEWdlFWZaj+YfbT4phZ0EUa7+kDTr7C3ziYbyne5F+pnfk7SHnbPtLsWH5Sfj62b/RIf+Ol4jFb/pIb+1aYiZ3Mrj2TmZF8v1E9o5eD+pX81F9LOt/qrLKKvBFTPVv5o4M2u5e4Lyz1tz6qQ+tJi3Nw8Bqfq5awlr8b+/PRDpOmX/sMx5SzKFSGDuqp0gbbpGkO1kntOKk9FqX26yHzpp3LtYrR+uVP6YQjW8ajYnptfza66mep7alv8eNzXNlT+nxK/ANajwEtjyGp7S32uNH5WFanq7acKnU8OCVdxuyI85dQO/EcM6sTqr7qPbVeU/p9D+NlsE/2ca6afozpvX8cdcy0ukjjnX28ydf2n2oCqo/Ox84lbvXStVFxId+CHcQOIn2kuae//XHSjFo66Hxu/CI3G9+yh7bph6iTd9OqS9/ABNnYhQ7uo28X9l/dG32/UcNVcUmAGTxm9/YgkDRh1Zf8Pd/6OErrsfVEyb7flr6cf6i7qbwtNtnysOL+G8u5V1OGVvXU0AZbpbkRc+ErFGFXYnssSu7XA+bNGuu6LZ1wmMnDzL2BosN+Ft+ehhA/PkeVPfFLquj4F3QzBqQcQ3Ix7S32uNFVOVocfzpsy0mSx4MmXR97a3Qas7S2F9VOvCsZ8gnVXzWyKn3Ve4t6Ten3x4+XsX2yj3PV9GNMfNqe9q+/+LW/9Tv+mNlNGu/vQy471Cb6JLVwifvweo28ylHVR5qqhZTX++p7XJ6nEetnnc/t7uXvWDXuyuDeNn2//WXnj9CqR99Fj+37JQHZUoC0G3+rfOu71bhkb14trVWPvl8prPyo+cA9Bcnl9JchXWwbTJBYR120x+h+nR18JhJ53t5NX8nqdn14umU2eTi2DTfopd98UAnx72sMiBXX3pr7bLflcPZ35PGnjfzkuLy0yp6geXR3nH//svepu3bS7opJr/WaMu4ePV4298lUvZVViU/bLZd+1d8n3cUx80Odo9b4eJOv0TfR34+s/V8Nevg7/jZbqGxPtPpIM8R2ZPcycDP/5e+K1ukr9lKu77JzUEPsTEzqvtE5hv1mzcYkWwpQXNKQVK8Xcv+q16mr5Kbujb8r+W++NoNSzVWx/jSUc6+mDJ3Uk9MGW6QZzrtHm/ZYlNqvN39l3RgD69i87dn7KPK6/W+eLQeppNlpP4ttT0M4fnwulT21zmPjr37b7RiQeAxp3d7c40bPY1nM8afTtqyM7uRVDXrlb+yn8ubeDJLcNhIdc+xt0mnMYtpebDsZSXbByj6d1y+ub1bK0Gu9xvZ7revxMnQu18e5qtbNMeZoXRwzOzvuvr8PeOXrSrLlp5WGG7KWl8oiYntfwH7Nbh9pfjRv8qCfflO63yhGXexsTHo8sTssCbBLAUpf56TWq/pEvk59XJi82Mvx7nI084jdYdSXs8xbhl7qKTHN7aPoJlaX94O27bEorf7jD6pd5K0gu6k7r9uJLH76ctBt/aW0p34dOz67ZU+r80xM/DsfA1KOIR22txMYy7puyxn9cAjnW/jXe30qWdSibZyMLmMW0fYS2kl2P9B6LtU/TZnSNwNl6LNeo8ZdY5jxso9zVevoY8yxuhjDOj7uvrMPuezw6qe+9P1cfcy3mhX7Lvnrb06KV3hXt2PzNKxfh290+kjTK78nIX+aXbTIAbZ1+mtZx+Tf4+pJX2quxs7EpOfLw6M70V/qvD08ZA+ZcMeUfd6cx96ubn2PwdVGhz90PLbb2G+Enh8K5VPtYjxXgS4xj7j2P2L3SA3lLPOUQTm+nqptMCXN7Bu3xrzn2rfHouh+nU0MQwclVzd5OzAHvefpVNVt+MubTvtZUnvqV9T4nFD29D4fEf/oMSBe/DHkmPbm9NkeylESefzptC0nSD3OJ2l97I3TZcwa215KO7FPw3NXW+zTLAwufdV7u3qNG3cznY6X4XO5Ps5VjchjTG/9o4tjZtfH3ff1Me/50pej9dpS/XjT/eVo9ZqK3FdmxKpDq23VkXi/3fRZv+esX+0jzYxqyMX0xnORxcZ/b0+J8zn9txculs6jX7W26VdNFr88+Y9xJU/6b4BIOXZmrfhTZYDpmv7mbb1eBw56Nm+Tcpymb+cSXh2qPpOtbTefuV3Zn4ttQz9Wt9X69/bqy+lyy2DfS6qnmDYYk6aZlOrlAuroUu5f9gbu7MEjzoDfvj0WNPZrO2FW+bhY+vqvXyd5KzBPk2o6cUutv3pp7akvsWNpStnttgl9vjn+Ks1Ox4CUY0hKe2vqs12Xw9lf9PGn27YcLek436Rt2dvqKmYxbS+tnei/jaZ+JXN9L1MwTa2nem9Zr3HjrtF+vIw5jmqRY0KfZe20f5R1cczs+rj7ns52+jruJ6VvGDV/aLO7wbyPNHGk1a0aHN7Ucc9/4vJpfNhy6gnOWF5uwicmWb96uYl7xD+68c7t6auOpRxD8F5oe0focbykXr6eD/u0Q8Cwf6k9+m95fVRfpZwYBu0JAOIwXqJbTL7woW0ff1TWlX9GX6WcGAbtCQDiMF6ia0y+8CHpy/R6LbJZZv95lxt+jnLqB4AE/oaZNbp7fafH+H8tX6XfAMCxGC/Rl099zxcAAAAAnAqufAEAAADAAJh8AQAAAMAAmHwBAAAAwACYfAEAAADAAJh8AQAAAMAAmHwBAAAAwACYfAEAAADAAJh8AQAAAMAAmHwBAAAAwACYfAEAAADAAJh8AQAAAMAAmHwBAAAAwABOYvK1uj2Ts7NbWdmfi/Lf3Wb/978uH7fZttvHS+/vzy4fxWxRtJXHy/J2t04GTHomXyYf/m33+3X2k33GeW+/rbMzX97d/Lh5cGNW/f3hVY6RP9b1qvHSLzePWlM+c74yu9v6t1Evb1yd/axu7fbm/WDZ7XZ5jHzCcVvJreezsTEI6a6u/dvoV76dScufP9/vqukefh9TDwAAAF/VSUy+rq5n6r/P8rtyZraS388ik8VPeXrayW6nXxtZTNSvZkv7805e70Zm88xMlvZ981rKbD2XcWmWoE+YxzKXhWzy7ZYzeZ76TsDf5EFNOn5fH9LcqAwUtx3dvWafl8p+yvSJ6Xi+VuXZyO7pyr5bMLH52SxEF7FEncBO5VBmE4dnmRYmIVfRMWpjI3+L8VIvXeTn6aWUQhaRz4zaTsditjykp+PqF1Onju2jXE5V48li8CSeaFuqLejtuhQbAy8zmZu+ubFWnz87xDq+rt3Y6ZeKn/2tFtP/TPzMBHw8vyiluVmcZ7/1iq4HAACAz+80lh1eXWcng8/u2d/qtzolnMjN92MmDmM5d87pV7dTla46KX29k33KV0/ZZGI9/0+dchatRW42Upwr6clWZVv1+WwC9jz1TOAUO9nQJ6G+idDmr/rdxbdDflw6/dKEbSR39zoTL/Kn+Yy+A1fyVIyXcvVTTxLX8ndj39Ai87kyZ/Xys9XZeLVOy9QEZjyXtZ7M+ia5BaYtTGRSm16iI+rK2zaVqyc9yVrL/EfMBC5RZP/bPv6Q+Xoii015EjW6uwtMquLrAQAA4Cs4kXu+ruSn/vr++Xdp4mNO0G/kqLnX9o+8qHnN5Hxs33C/zT8wVwDe5F/p7NY/+fNuq0669dWb9XxcnoCpiddZ/u2/9yR0K//einmMND6vTn4GtPpPnVir0/brpvPqrvNZqdMifeVITWD0Cb8zganQV6iyavklN/at3kTFwLRNmV17JjMj+X6j+kgvk+2Y/reVPzros3uJu4iaUA8AAABfxMk8cGP0/UadnBaXPpkT0dl96ombXp5VuB9l/CI3m8JSrO0/NWXSV63Gh23yl3f52YV8C2agejKtr4rlE7AsOb08Tv+j9tv/jZgLX80lLd3ro68q2PfTODHSr7olfAXF+30ezjfBpWRN+cwmryo2/0XttqFO9/QSUf+Voyo1ObAT4viLMp646QmG/a0rua5s2wxNwkffLuy/utfY/2onvK6UegAAAPg6Tmbypc7+RH+xv1/6lC15iriqUuHe43Ivf8fq5NeZXGT3XZW2y1+vkd/sh9grBOpUNlvKpv6j/yfrv2qKFRBR1nzSU7oXyHdvWBQnRjqd0HJJR3Z/m/3cL/mR5akY2uh82mWa+t65fIKSLcv0iqvTA9/9S2X75X1Jy+HcfOhX+f4prdu6Gkhn/a+ouR4AAAC+ktOZfIldVmWXPmVLnrzLr1I5S6pG30RfP1hHr4FzlyEaW71OUJ1OuxcCVrdjMbd2vcp9dqHiRn5lJ+j6qkngiXKNZV3Jf/mDOvq4kmBPvNcvf5LuJxrd/coe9nC4Vygtn3kMFxszQQk/cMPlXyanr1LevwYeBFJklxv6lp4e74i6amibJl51V2KP0dD/kvpNZD0AAAB8MSc0+dJzgHzpk13ydNzX7gFXYh7u5p64h6zlpXKTjb265dyPppeZmZVsO2cp25U8ZVc+1ATMfeLd9lEemspql6O5yxK3f15aLjvsSVI+80nKryOvNFbtH04x9p34v8mDDvhkIb+63rF2VF3Vtc38nqsuvpDwq+9/qf2mqR4AAAC+npOafMnoTvRD4d4eHrIb9ds9Cc9VPWk1T+nzTIRWt96ld/r+reIKN3N1ayKLX4crG3qpmbmaUn4y4p4q26t5RKKMC/vNHlrRVFZ71eH5oZDf/OmJXcjv57n5Hr5S44mNefpd4SQ9IZ/5sr/7VhOgponISO5e9dVGfeLvXm1cy9qpu04dWVdXT/YqqdM2TZtLXSaZqKH/7fPmXMFd3Yb+fpevHvK/Fxf6DAAAwOd1WpMvRT+IYb1e108EaumTw8N9RGf673ldOE8Z1BMhvRRQT4SK207FMxnQ9/ksRSW63276rN/L7w3L//aRWWpW+/e07H1O2QTs7FIu1ef0hM38XMiHfThDdj9UdhJur5wVt3s4l03r+4icGKn9SVPeFfchJeZjxat8kflUk5G0ZX8RdVpRuNqoPlOcPPdxte3g2LpSn9d/u0vKbcLcP+Z/uEmX6vufzZv+m2WlvJ1L+DEc4XoAAAD4as52+mabU6JOzM+mb+qk/tgHXxxPX80yf1C2j5NePWkby8tNeNKT7f/lhkd1Yzgn1P8AAAA+mxO78qUmJNkNULF/SwhAd+h/AAAAfTqpyZe5h2gii25u9gKQgP4HAADQr5OYfOV/F8ncQ/RVljvphxH4/lDwQfY3tVhyiJ59zf4HAAAwvNO75wsAAAAAPqGTe9ohAAAAAHxGTL4AAAAAYABMvgAAAABgAEy+AAAAAGAATL4AAAAAYABMvgAAAABgAEy+AAAAAGAATL4AAAAAYABMvgAAAABgAEy+AAAAAGAATL4AAAAAYABMvgAAAABgAEy+AAAAAGAATL4AAAAAYABMvgAAAABgAEy+AAAAAGAATL4AAAAAYABMvgAAAABgAEy+AAAAAGAATL4AAAAAYABMvgAAAABgAEy+AAAAAGAATL4AAAAAYABMvgAAAABgAEy+AAAAAGAATL4AAAAAYABMvgAAAABgAEy+AAAAAGAATL4AAAAAYABMvgAAAABgAEy+AAAAAGAATL4AAAAAYABMvgAAAABgAEy+AAAAAGAATL4AAAAAYABMvgAAAABgAEy+AAAAAGAATL4AAAAAYABMvgAAAABgAEy+AAAAAGAATL4AAAAAYABMvgAAAABgAEy+AAAAAGAATL4AAAAAYABMvgAAAABgAEy+AAAAAKB3Iv8H4/AOgS/TLgoAAAAASUVORK5CYII=;" vertex="1" parent="WIyWlLk6GJQsqaUBKTNV-1">
          <mxGeometry x="-10" y="-210" width="863" height="198" as="geometry" />
        </mxCell>
        <mxCell id="NsZ-KhTiiolm1iS4KSTE-12" value="WorkTime(Рабочее время)" style="swimlane;fontStyle=1;align=center;verticalAlign=top;childLayout=stackLayout;horizontal=1;startSize=26;horizontalStack=0;resizeParent=1;resizeParentMax=0;resizeLast=0;collapsible=1;marginBottom=0;whiteSpace=wrap;html=1;" vertex="1" parent="WIyWlLk6GJQsqaUBKTNV-1">
          <mxGeometry x="-170" y="380" width="490" height="190" as="geometry" />
        </mxCell>
        <mxCell id="NsZ-KhTiiolm1iS4KSTE-13" value="- id(идентификатор): int" style="text;strokeColor=none;fillColor=none;align=left;verticalAlign=top;spacingLeft=4;spacingRight=4;overflow=hidden;rotatable=0;points=[[0,0.5],[1,0.5]];portConstraint=eastwest;whiteSpace=wrap;html=1;" vertex="1" parent="NsZ-KhTiiolm1iS4KSTE-12">
          <mxGeometry y="26" width="490" height="26" as="geometry" />
        </mxCell>
        <mxCell id="NsZ-KhTiiolm1iS4KSTE-21" value="&lt;span style=&quot;background-color: rgb(255, 255, 255);&quot;&gt;-&amp;nbsp;&lt;span style=&quot;white-space-collapse: preserve;&quot;&gt;employeid(&lt;span style=&quot;white-space-collapse: collapse;&quot;&gt;идентификатор сотрудника&lt;/span&gt;): int&lt;/span&gt;&lt;/span&gt;" style="text;strokeColor=none;fillColor=none;align=left;verticalAlign=top;spacingLeft=4;spacingRight=4;overflow=hidden;rotatable=0;points=[[0,0.5],[1,0.5]];portConstraint=eastwest;whiteSpace=wrap;html=1;" vertex="1" parent="NsZ-KhTiiolm1iS4KSTE-12">
          <mxGeometry y="52" width="490" height="26" as="geometry" />
        </mxCell>
        <mxCell id="NsZ-KhTiiolm1iS4KSTE-20" value="- startTime(начало работы): float" style="text;strokeColor=none;fillColor=none;align=left;verticalAlign=top;spacingLeft=4;spacingRight=4;overflow=hidden;rotatable=0;points=[[0,0.5],[1,0.5]];portConstraint=eastwest;whiteSpace=wrap;html=1;" vertex="1" parent="NsZ-KhTiiolm1iS4KSTE-12">
          <mxGeometry y="78" width="490" height="26" as="geometry" />
        </mxCell>
        <mxCell id="NsZ-KhTiiolm1iS4KSTE-19" value="- endTime(конец работы): float" style="text;strokeColor=none;fillColor=none;align=left;verticalAlign=top;spacingLeft=4;spacingRight=4;overflow=hidden;rotatable=0;points=[[0,0.5],[1,0.5]];portConstraint=eastwest;whiteSpace=wrap;html=1;" vertex="1" parent="NsZ-KhTiiolm1iS4KSTE-12">
          <mxGeometry y="104" width="490" height="26" as="geometry" />
        </mxCell>
        <mxCell id="NsZ-KhTiiolm1iS4KSTE-18" value="- breaks(перерывы): float" style="text;strokeColor=none;fillColor=none;align=left;verticalAlign=top;spacingLeft=4;spacingRight=4;overflow=hidden;rotatable=0;points=[[0,0.5],[1,0.5]];portConstraint=eastwest;whiteSpace=wrap;html=1;" vertex="1" parent="NsZ-KhTiiolm1iS4KSTE-12">
          <mxGeometry y="130" width="490" height="26" as="geometry" />
        </mxCell>
        <mxCell id="NsZ-KhTiiolm1iS4KSTE-14" value="" style="line;strokeWidth=1;fillColor=none;align=left;verticalAlign=middle;spacingTop=-1;spacingLeft=3;spacingRight=3;rotatable=0;labelPosition=right;points=[];portConstraint=eastwest;strokeColor=inherit;" vertex="1" parent="NsZ-KhTiiolm1iS4KSTE-12">
          <mxGeometry y="156" width="490" height="8" as="geometry" />
        </mxCell>
        <mxCell id="NsZ-KhTiiolm1iS4KSTE-15" value="+ calculateTotalWorkingHours(калькулятор общего количества часов работы): float" style="text;strokeColor=none;fillColor=none;align=left;verticalAlign=top;spacingLeft=4;spacingRight=4;overflow=hidden;rotatable=0;points=[[0,0.5],[1,0.5]];portConstraint=eastwest;whiteSpace=wrap;html=1;" vertex="1" parent="NsZ-KhTiiolm1iS4KSTE-12">
          <mxGeometry y="164" width="490" height="26" as="geometry" />
        </mxCell>
        <mxCell id="NsZ-KhTiiolm1iS4KSTE-22" style="edgeStyle=orthogonalEdgeStyle;rounded=0;orthogonalLoop=1;jettySize=auto;html=1;entryX=0.478;entryY=0.005;entryDx=0;entryDy=0;entryPerimeter=0;" edge="1" parent="WIyWlLk6GJQsqaUBKTNV-1" source="NsZ-KhTiiolm1iS4KSTE-0" target="NsZ-KhTiiolm1iS4KSTE-12">
          <mxGeometry relative="1" as="geometry" />
        </mxCell>
        <mxCell id="NsZ-KhTiiolm1iS4KSTE-23" value="один ко многим" style="edgeLabel;html=1;align=center;verticalAlign=middle;resizable=0;points=[];" vertex="1" connectable="0" parent="NsZ-KhTiiolm1iS4KSTE-22">
          <mxGeometry x="0.014" y="-1" relative="1" as="geometry">
            <mxPoint as="offset" />
          </mxGeometry>
        </mxCell>
        <mxCell id="NsZ-KhTiiolm1iS4KSTE-26" value="" style="shape=image;verticalLabelPosition=bottom;labelBackgroundColor=default;verticalAlign=top;aspect=fixed;imageAspect=0;image=data:image/png,iVBORw0KGgoAAAANSUhEUgAAAacAAADtCAYAAAAbW7omAAAAAXNSR0IArs4c6QAAAARnQU1BAACxjwv8YQUAAAAJcEhZcwAADsMAAA7DAcdvqGQAAD1rSURBVHhe7d0LXBXnnTfwX5NUGrvwbits8gJpAhg0RDG2akiMNwiCVi6aAulKSXKQRpS8KLxLhWKDCxXkDV62BJIgZEXcKCQq6HKzoGhoqKTrLeIlAkkFNhZtU9iYHFrM+zxz5sDhfg5gPODv+/nMx5lnnjNnLsf5z/+ZYZ5vtbd/8TWIiIjMyD3qv0RERGaDwYmIiMwOgxMREZkdBiciIjI7DE5ERGR2GJyIiMjsMDgREZHZYXAiIiKzw+BERERmh8GJiIjMDoMTERGZHQYnIiIyO6MSnJp2esN5WTaa1Om+WlEQ8iicVx+CVi1RdB5DtPOjCNrdqhaMvtbKbdh2ZITL/zQbS8R6OuuHx55GxM5TaFNnm72GbPjPikK5WOGmw1Hwn65ux3Q/pNSMma0Y+xoysEQchyrucqIhjUJwOoZtqfXq+EBssHDZU0BlEcpvqkVSVREOYSZ8PW3UgpFqRVWCH2bFH1OntThVmIHMfTVizsgtTv0dqqt/h5KkmahJXYWM0+qMO6r3NvcmLgwSUmARGYvFVkB9XTt8s46K7TiK3J9pkRMSi0OGx4RuH8c1eHVZOaJ3nFILiGggIw5OTTtTgJgNcFKnB2KzyAduIpAdq1ELhJrj5cATvlj8oFowYlrUf1iHtg51EhZYvONjXN7pI8LjyFlY2cDGxgZOzwVggcibWv+szrijem9zL58WIadmMYKf0+2BBTFZ0LjZi+2wh1tQgDhu9Wi9fYkr9eL2z6Gw2r0bVZ1qARH1a2TB6dNshB0MwHpPdXowNgvh4wYcKtVf4Z9C2XtauP3ECzatx7BpxY+6ms3mri1Avfqft+10NiI8p+nmzY9DuTyR9lu/CTnLFiHlsph/MEyUR6EKskzUiVG/s7MV5fF+mK5+brqfWN5nulmojBJl3kjZGYe5j8n5TyMsv2dGqG1rFSfyVtS9uU1kfAuxcJauvPVIXFdT2XS/FFT9RVeOzw4hWr/u3inYtEq/Lr3Wa9D1nAb/5GNok/uj7QOkGGz3L6v72+aeWn9fhXq3hXCbqBbodbbh1D6x3+y8sOBhXVHd7hC499fk13YK217q/l65n3I+FeXKPtOX9fxMVYyYVpt6m972E/P9kNMgJgY51t0G3z+txzfBf5bu80oTa6/jpKf8duYb1FOaYtVlqd+vG8R+6910qw7RleK4H14rxsO6M8ybhxAmjssmeaEl9k3O2kW6YyW+45cl4geqLkt+FjeP4ZdiXWeJdVf2jPNCLLAoxzGzyLqJzNcIgpP4Ty5OLAGvh8JeLRmcDRZ6zgRKqlAjT0Z/KMK72qfgs0hc0X/3IQSkHMW5yyLLOboB9uJkn1Mt6nxWgIjAFDR5Z6H69EcoCfoKTfIE0W99e2gOH8UGZzHfPwuXL28V2Y0hLarivRFR6oS04x/h3OlS/Mq+DBE/3SZyB7161PzVBwf/8Afk/rOFqJ/d42RfHvM05s59Gv7FT2Hf77PgYyUK/7AJS2K/wprjYl0u/AFpTnkIi5f31sT+WRWFcqdXUSLW/VyGE5p+r1vOUE5t9kZcx1pUXxDL/P1WOP1HGOJKxPonhyDnH9brysW2/3ruUNssTuRXrwB2IuNTp7tO9I/9CEFHXPDrN9d0Zb02T24Q2yWX/RGy/OqRk1ogaotPvJeAzMsB2HdOzHvDR1e5ixM2HJGf+R1efbQOe470CugNIkAkN8Hnjd3QOIqCgY61CazsA5BW+ZGyDypj7EUg73mcFCJAhMjfzspCfHjuI1S/HYCm1EDEHbYR+0yurzh+oprPG3K8e7/ppsVwpLs1wMLdG4tF1l9Uqbtj2nq4AFV2oQh2a0VBRCBS/tsXWfI3VRiMr5oN76q2oSohGgU/EPs1eSHkz0X+P3joUfHr+O8ed1+JqJdhB6eqmEU4H1UKjXrVbQwbT1/M1BagTFw11h0rg9bNBwvlWdPCCk0l0Qia/zRmPZsicirgq7/LK+RDqLEIxqvRT8FmogWcVkdh8X0D1x/cByh/rw1uMbFY/KAFLCY6ISA8GDbNZeKqWa0iTke+P5HfZQW3+SKQilPznwyavOSJ69zh9XC5kI2MajVDeDcPbW2HEPGk7oQfcVicdD79E1rFcosuW+AnYQFwEutu4RiA4CXKR4ZwDO/ubkPbwbWYJTO4J9fikFhk/WetcJn1FFCzCSGx4mTcYNzJrfVaK5ycJqtTkgxoYjs+/B1KVmuxZVmgLgsSLG7+F7av9hYB+EciaxTL791UKPd9H/VI8ZRZxtPY1LwQv1op95vqL0WIFgECMflIc9edmk06dko2KJetZocqi4lNKIoJxNz5P4J7srIE3QwDTZVFqJO/nZddYGVhARu3NQh1FxcYxz9Qa5hgog+C5cXK4XJx0dGKY4c/wExNMJxEFnioxgIrf7kebvI35bymRytCXfrPEFa5AFn/Hgqne9VCsf/l4WgSx5OIBja84CSuSlMOAodWyxOHGDxTUH85Be79NCv18KAXfJ/QovxYHsr2t8Jt2ULliv5UqshojszE5tLf4cMLuitaSfvFX8VlshUs1Gncaw97u4HrG8NCBJ6exNL7PelKf0J7r4cF5AkoPcYJVbEJqNLPc9uManm1rR8Oi2xSnHC14lrZqmvlxXTXSdgClt9XRwfglvS77uWJoWSVPWyey8W50iwETChDtPc0hLw39AnOytIC9fUie+pF3j/T3TurQ9lxsZxWXZb6VeBuVFZ/JDKS7ruI9iE7kb7oGIJksFx9SC3V02dOH2Pfc+fxy/9r8NSmpROcfiBOxJevdj3ZaNKxU7JBuWw1O1ScQsqytSifnozKo3/oJ5MzYPjb0esKEqaR94rs5QM9n8qA9BR+4i1+uR3iIqLXMbZ/uLsdwX6yE6za6lF/XS1QNEEeDvsHu3NZIupreMHp4VCUGJw4lSYQ5w2olM0jsr19wMfKbbDYZyZad25CZqvapCe0/UWcusR/VnsLcV16WJwAlFLxH3juQti3ZiAu7QO03hTzag6hqnng+nL5NvLc8OdW3T2aHp7CYn9x9ZsQi/LPtNDerEdBZh5ap/lisQh4prD/5w3ipHoImzLr4DZ3schmUpBS0iqCkWzGKsC298TWP/xDLLBqxZ7MAtSLdW/7KAMZh3Wfl+v5T/I7a6tQ1SrW5UKRyLJ0c+R6uomr75rUZJSLeejUov69bSjQZzeOC6HZtBVrpok6H54XJYNts1jXKT8EmlvVpxWPIWVVNmrkdGsTanbmiIsJe7g9KY7DzTZRxwo2/1uc0G/W4dBBg+Y5kSHk5ddjQfJgwUCuqzqqd9/jWPPaBtiLDChkp255Ax87Y/0VrWIR9mKjLf7eikMim+mPvbuvyGzEb+fNOrRp5W8nA9mVVghYIrLP4XAORugTx5CxVuw/zwD4yp+u3UIssGtF5q+2oUb+plo/wKHj3b98K+8EpPk3ISVQXLTpo7PYy1c/toD9/+4TNonIwMgeiBgGpWlPnsT0TXrCgtUbMPP3cZglm8VaJ0Oc7nWc1+PgzlDgnRDMfWIa5sZ8AO2EQeqL6+QFgQGwOS7nxfXK4sS8xEK8+uQpRM+fhulPeGN7ezBy/93Ye2YGJi7E+kgnNL2ZgqJZydgX44aaqKeVm+KzXj6E7zwiN2wm1uxcAyexLkvEui/JtIHXMt3HpQWrN2NxZx7C5k6De3ornOT9GIUFfJLzseHJGkSIebKpMKzQApPFImsS1YcrHluEDIQiN3ahUn/gbRb7+8kFcKo5hholy/snPNQhvnORvHe2CCFv/BVer+djvcxKHg7AhkAg56fiO7zzYDFfnzm1oTx1E2rExcerz/XOOiV9s940BP2HPdb/a3CP/WnhKNZTBDR5vye6sm2QY2eshVgTOxM18T+C86y1aJ0ywBLEBdQ++dvJ8sOs6eK3E3YMTqn5+PX84QYFG/wkZCHqLzdh5c981IzMCev3Z0GDPITI39T8aNR8Ybh8KxHQxbH8wSGEvZite/Dj8jFUaRdj4RO6GkTUv2+1t3/xtTpOt5l8gi0MWbicKoPKN0X+AfTTeNfzd9j3M/VqgIZFezgM02Ptse/cq+LSY3hqEqYhzjIfldEuagkR9ecbz5zom2aDgIQN0O5IVt4QQcOhRVvzB9j2xjG4RIUOOzDJN0RsOuyLV8MZmIiGwszpG3RnMicaMfn3XKsPwcZ/Kw4m+8BmmA9VEJHxGJyIiMjssFmPiIjMDoMTERGZHQYnIiIyOwxORERkdhiciIjI7DA4ERGR2WFwIiIis8PgREREZofBiYiIzA6DExERmR0GJyIiMjsMTkREZHYYnIiIyOwwOBERkdlhcCIiIrPD4ERERGaHwYmIiMwOgxMREZkdBiciIjI7DE5ERGR2GJyIiMjsjMPgVIdtcx+Fs3MUqjrVottI2/AByv9jG3652g9zE4+ppURENBLjLzj9oQA5mImZNodQVKWW3Sb1O/0w/cfRyPtQCyfvtUgLeUqdQ0REI/Gt9vYvvlbH77g///nPOHjwgDLu778c3//+95VxU5xKnIaIifnIwir4N8Ti3Os+sFDnjarP8hA0Pxtu+49i/TS1jIiIRoXZZE4yMD333ApcvXpVGeS4LDNJ5wcoyrfCT7xc4OITAPsjpSi/KWc0IWeZbOozHKJQpS+PykDB2qd15XPDUNCgLA1VMWI6Rm2q66xHzgr95wDth1U49T0XtOWqn5u+CNGHW8Wcemxb9CjmptUpH5Pq0kSdwHT822DroP+eLrryJTubxPgppMx9FP5vy3EiovHPbIKTzJgWLlyIV19NUAY5rs+ijFZbjnetAuAlMxlnX/jYlaOsUism7KE5/DEuX86Cj5jyeUOOb8UC+RnpyCkg+ijOnS7Fr6d/gF+GbhMhpqf6nWux7ePuHKz1s6vAX5pgtaIQ5y58hIMRVjgUFYhtl53g62+P1v1l0IWnUyj491YsDgnD/xlsHYiIqMu4uudUtT8P2tYM+CtZiTcym4Hyw+WQ4WkwFoFrEOBoAYuJTggIXAw0XxV5i4GGDESk/RN+FSPmGRIBMMDNBhb3WsDl5fUi6DTh1OlWOAWFYmZrAco+EnX+UIR3EYzgJUM0Lh4M68qoliR/gDa1WGcmNlR/jIMv2avTRETjm9kEJ3mP6dixY9i0KUEZ5LgsM1rnMRQdtEDA679DdbU6vB0Km8oitWlvYFYTDQJH7yf8/l6HzP+zDTZJaQiwU8sEC6t/Aj5tgmzI6+PBAAR7tuLdsjqcKi4AAn3hdq86byD+WSKT+hjn3glF29speFcEViKiu5XZBCf58MN77+3HQw89pAxy3JQHIrQlBTiExVjsbgMbG3WY64XFFsdQoNwLGljrOztR3iryq5siEGUeAuY+BRd1Hg5vw7bvb0ZaoI1aoGMz3wdu2jxserMOWq0WdW9uE9//FHzmy3oW8PlZMNr2RyEu3waaoJm6Dxnji7ZeWZPEe05EdHcxq2Y9GYw0mlBlMO1JPS3KS8oBNxFUemQoM/GUJ1Bz+Fj/GY7eE/8L//WzaXB+wg8ZnaHI3RGA7lD0FH6dajitEtlRem4okOWH6dOnwX+PPTbkpyPgQXW+WwA0qEf9Y6EIdlbLBqM2601fVQSnlzbgJwZZGhHR3casHiX/5skn4hYhxSULl1MXqmWjRf4xsB9ORf4Oub2yLiIiGty4eiDCbNxsQ33+NuRoAxC6jIGJiMhUDE6jTmRjgT/CksS/QrNzAxZMVIuJiMhod3mzHhERmSNmTkREZHYYnIiIyOwwOBERkdnhPadh6Pjb3/C3v3fi1q1b+Jp77xv1rW+JK6p77sG377sXE779bbWUiMYbBicT3Lr1Nb7UatHZeUstoTvp3nvvwf0WFiJYiYhFROMKm/VMwMBkXuSxkMeEiMYfBicjyaY8BibzI4+JPDZENL4wOBlJ3mMyW9fO4NI1dVyhRWNNBSqP6IeLuKHO6XI1FwEbT6gTpum4elJd7gk0tquFaEfjuQZ0qFND6Tgei6cDs9CoTo+EWR8bIhqWuyo4dfdAqxtMIR9+MFctpQnYfUmdMFS3C1uODv5GdlN1VCfgJ0knATsH2E3sQEdXdySnkZ34Pq6rU0OZ4BaBtxOfh4M6PRLmfGyIaHiYORmp71N5JxC/IgEZCUHw9fSAb+oJXdbQeR2lokzzchgCVkSh8KpSGe3n0hG5bCm8li1HgGcCqmWhYfZiOH6tGIk/DUH4y6Ju9AG0KIXtqE0Lge8yD3gtWY6Mc7KsGfmveOClzAaUbpTlHogskB1BWcDBzQPuM+1gNWUe3D2nYpKsLpZxNjNCt4yfv9Uja7lRFIZZC9JwVp0eyPVPLsB6/nK4uzhiylwPTHlAFNakie+ORemVdLwk1sFrSRpqldr976OWggh4+QVh5Ub9tknNyIvT130GXgknxNoKnQ3IW7Mc4etC4PXDGXjaU7/sbnxikmj8YXAaCXGitnpxH4qOZMG/plg5aXYc2YzCqa8j580sFGyyQ3a2DDhnkBnbjuDCYpQdToff9wa7ia9FaeoBTNmei8w3D2DjD7KQrUSy0ygsnYGk/RUoKzmANdNlmR0Cf1OBt8Md4Z0oyyuww7BHxN5OpyP+8xAUHRZ13/p5j6xl0pNhSEpYjqnq9EBsfeMwqyIIXpo0FF5S2/TcosV3J8N7ssiGxDqUlURjtm5Ov/vINiBdV19Xo9uVM/iOUjcXQWeLdYGyOguFs9KQKfbHGxGOmPHKz7uXTUTjFoPTSEz+MdwfkSOO0OxPxlwxdvH8SVzMj4JGEwLNa+8DX7bjxtUzqHWdg9lD9YaruIiLH15AQaz4vFjGdhGY2j+XjWXzsD6uHVv8PETGsRdnP9fVNkXLmZNwdZujTvXywBx4L3LEBHVyQJYzsCbnfRz6f/PQvsMfK/cM0WVvP/toYFMxRalrgQn3KQXADxyBShHUrpxESSUw3cVSnUFE49ldFZxkN+iGw+1g/aAdXF8UmVNOLnJ2HUDRlqWYNMkathcbdM1o7SL4/FGp2kP7lQvQneatYf3QEwjeIT4vl5FfjNQfWytzJi1KwB6Rmbwx/wwit/d6mMGIZwKsH7DDpcYGZbz7+1TtDag+Z+wdI2DCpDkIjliO62K7uvxdK/K+0XXjv07C1nMOOhq18NixF2smqzOIaFxj5mQk+WYCY9j6RsPhHZFRrEtAYlwY4veLE/5EDwT+cC9Wa8Kw8hciqNjqK8/A3A8ToFkXhtUiQ9I1V9nBL9IB+SuCEJmUgPiXY1Eon8Rr2YvI4AgkyrJdDfDz786AbN2D0JKwXNQX85V7Trp7UV4bi9GYGdJ1D2jC/CC4FkQjcl0QYi5a92geu3E0GZERu4a851SbJpYr10Mswyv2ItaEzlPnzMESZRtjxTqn97kvZEhZhsE9qu016ox+THKcirM5ycjO24p/CQ5B/H8aBEOVsceGiMYOviHCSF98+dUo/Z1TM/IC0+GQP1QTF0nVCUtR+1wx1sl7bB0ViAluxrr8kK74Lsk3RXz3/u+oU0Q0HjBzMpJ8lxt98xx+OBXVr4oMNCkW4c+nY4JmaY/AJPHYEI0/zJxMMHrZE40WZk1E4xMzJxPIl4zKkyGZB/2LX4lo/GHmNAzsMuPOYZcZRHcHBiciIjI7bKMiIiKzw+BERERmh8GJiIjMDoMTERGZHQYnIiIyO3xabxj4KLl54ePlROMPg5MJbt36Gl9qtXxLhBnT/2HuPffwbbBEYxmb9UzAwGT+5PGRx4mIxjYGJyPJpjwGprFBHid5vIho7GJwMpK8xzT6TmL7Eg94uc1A/HG16Ha62YDaIxWo1A91fTsXrN64HHlX1QlTdLbjUrW6XMNOC9sbcPYT4zOZxpzleHrjCXSo08N1e44XEX1T7qrg5Oz8aI/BFPLhh9E3B+tKKvB2uKM6/c04+85mVN5QJ0ZFM/JeCMLuFks4OFgCX7R1B5dTWUisMr6HXYcVyXj753OG7i5+CLfneBHRN4WZk5H6PpXXjrOZEVj5ShhWLgnC9tO67KB6Ywgif+GBRa+kYfuaZ7DoFxXiRC1O3nFpyEkNgq/nM/BKOCE+PYhPDiDmp0vhJbKqgOgDaBRJQGPmUmj26k/yZ5C6LBm1MjnovI7ShCBoXg5DwIooFKpZT/u5dET+NALhwR5YueOMLlhMdMRsTw/MtrPC1LkecHfRdf+Oa8WIF9/nu2Qp/vWIrkjvbNozmLXmAAaPZQ1ovDoHS/zmwGHyHLi7OSrBRenxtqs3XjGedlKp3bJrOSJ3iPVbJrbRMwT56jor9QNCsPItXT3F8diuuosWhCDvE7X8k1yErwhDpMYDs344p2vZenyKkmhsY3Aariu7sOXzEOz5TRb25D+Pxtf2oUWZcR1TXshC6LUzsH11H0InNIsSWf99YEUuio5UYP3nW1GgP8n20YCMqAq4v1WMMpFVJTlkYfsRrcgoQoD9xbrvqC3G+yK4zL4X6DiyGYVTX0fOm1ko2GSH7OwTyjJ2b2lHcF46MvMOIvDKZuTrVq4f11H4q71w3V6MopJi/MpTLVZNfW4Tkl6ah0nqdP/mYU2sFv/quRzxu06gRU2bZkdXoCxxKRzCc5VtKYvu7lr+7PUZSDostjHODgWVsmt5tX5OBByUqW611x5T6h5NsENhla5udfYBzN6ahR05WVjzyAysEdkWEY0fDE7D1F53BpeOp0GjCYEmci9abrbpghBmYIaL7GPIDnYPKAWqqZgyWZZbwHWmCB9/1JX21YyW++bA1VI3NcV1BlquiSU/sByBDx3AwSviZP3b0/AO0J2ML54/iYv5Ubr1eE0EwC/bcaP9DM5d+i22h4kyzVrkN3egbcDU5wJqW+dhdo917TbhEQ94z1YzrEFM8k5GWeVehNpWYPWPE1B9U50xgLme86Bs4qJkFLxgp5QNxG7KVF1dgw5vbUUEqzh8Eo0iUFeIfa7fX0Q0PtxVweny5Y97DCNhOckOtt5xyMnJFcM+FOyPgKs6b3DtqP1QhKre6UEXK1jdbEazej//Rst1ODwgg4MFvJ+fg9KCZBTWzsOSybr51g/awfVFkTnJ9dh1AEVblmKSpTVsH1iKX2TJdcvFnv0HsGa6rn5fNrBtb1CaDtHZgEuXdKVdRAZYfWXQRshu91rAwTMWax4/g0bDYNg52o92X8fZ39thyZNaNHY8i3/b2zfbIqKxjZmTkeRbCHpwC0HolVj4vhyLxKQIaHb0vOfRVzG2r0tA/MshKHVLQ/BDoqhlLyKXeOClzAaUbvSA1ysiAxNZQHiMFokrwhC/Lgira5ci3FPt7XX2UjxTKOoEPt91Mrb1jYbDO/5YKZadGCc+s1/mb/MQrGlEvFxGUgIiNWmolZXV74svbUCGRn8PaCr8Q5uxRROB8Bdy8ZVrzyzmbN5aRG797eD3nJTlLkd4XCzC/ZZi90Ox8JPbJ81aCteCMGjkvMzB9lEz8l8R66RJR2NpLLyWRAzSFGkNB+fTyE7OQt6OKPyzJhalvZpJ+xwvIhpT+IYII33x5Vcj+DunZuQFpsMhPxlz1ZJhaa9A/E9/iyVyORPVsrvSCSQuOwm/wmi4KvfdorCyJbpH86B8U8R37/+OOkVEYw0zJyPJ97bdScqTbIF7YZscd5cHJskRrlPeR+IakbWKbHFlpgVCvXtmfHf6eBHRyDBzMsHIsif6pjBrIhr7mDmZQL5QVJ74yHzpX/xKRGMbM6dhYJcZ5oVdZhCNPwxORERkdthGRUREZofBiYiIzA6DExERmR0GJyIiMjsMTkREZHb4tN4w8FHysYGPmBONXQxOJrh162t8qdXyLRFjkP6Pc++5h2+EJRoL2KxnAgamsUseN3n8iGhsYHAykmzKY2Aa2+Txk8eRiMwfm/WMZNJLX6+dwSXMwJQBepc1xo1zF4HpU7u6R+/45CTe/9iw0z87zPBU53ecQPz8rXDcewCaR5SZt82NugqckT2lTxTfP1N8/1BvSG9vwNkbdnB9ZIj33d1sQG11I3psoauHbh+O4vbxpbBEY8NdlTk5Oz/aYzCFfPjBWC2lCdjdu0dZkzSjJHEXRHjq4+w7m1HZu+e/CXOwJicZAfoO/m6ji/rvv3kaGcEeSDw+RC+5p7KQWKXrwN4odbuw5WirOqEaxe0z5TgS0Z1zV2VOvQOSKV21t/3PTXVMrx21aWuReLQZ2k4r+KXKrtBlb64hyK69jhsW1kpWMVWTix0BdjibGYT4/7wu6gLW3lvxduQMTIDICFZUwNb1AkqrxQncMwHvBjfjX0KzUHvtOiwesBZ1HkNodjoCbXXfWr1xORp/fkDXk64ke6EV9c9et0LofrX8ai7ik06jseEMpi57FrX7T8I/W2Qdk9vFesRiS50WuNKG2cm5WPeELqO5URQGr7SpyKmKHrS7+R7ff20vNNEdSMoLwfV+tu9Mmgfii8S+0Ip98T1R/9lklEXPEZ8rRuK6vWixasf1fwjBjrTlUDcPOB6LgMaI7o4D+9s+ud9e2IeOP52G9tnl6Cg6AMuECqQu6hhw+wxZ/cNd3yEWkdnjPadhO43C0hlI2l+BshIZmGSZHQJ/U4G3wx3hnSjLK5TAJLmG70PRYVmWBY+qvbpu06VPLsDqRTHvSBb8a4pRa/s8dpTkYs3kpUgSny8r6Q5M/VLqVyDJW51WNd7/LN7YOAclNz1QlDgVDbLL8ysiK/k8BHt+k4U9+c+j8bV90PeEPunJMCQlLMdUddooD9jBtu4CGsVof9s3O1pMJy6FQ3iusi+UwAQtSkUgn7I9F5lvHsDGH2Qhu1oubAADbB9uTEVo5s/RctZOBMefY8IfRXAfZPuIaGxhcBq2eVgf144tfh5YuXEvzn6uFg/gxtEEhAeHQKOJxb6raqE0+cdwV+6jOEKzf4TduBtwmDkDluJfO9vuHmLb687g0vE0sQ5iPSJF5nKzDV0Nbg/MgfciR5GpmWiClfI9A25fHxdx8cMLKIiVdUOwXQSm9s9NaPbTE9s3RXZ2+wO7rvtyg24fEY0pd1Vwks14hsNITVqUgD3iqv6N+WcQuf2EWqrqVP9VnEDGZkuE5+UiJysZQUbeO5FNZKPJcpLIdLzjkJMj1iNnHwr2R3Q34bU3oPqcaafy9iPFOLtiqVjGENvXafgItzWsH3oCwTvkOoghvxipP7ZW543MoNtHRGMKMycjybcN9CDvhQRHIDEpAfG7GuDnL5usdGzdg9CSsByRSWJ+gXy07TG4PnoAietiEf5COmrv09UbmB3cVzQjMUB8fl0C8gdrm6pJg9cSD8SXNiBD4wGvtJPqjH64hSD0Six8X44V6x0BzY7uujeOJiMyYhfOqtMDU79n2VJE/v5ZvB09Q5QNsn2zRPAqCIMmTszLlN9nB79IB+SvCBL7R+w7sS6F13RV+zVK26fX5zgSkVnio+RGMulRcjJbfJScaGxg5mQk+X42Gvt4HInGBgYnI8kXh8qrbhq75PHjC2CJxgaebU0gXxzKADU2yeMmjx8RjQ285zQM7DJjbGCXGURjF4MTERGZHbZRERGR2WFwIiIis8PgREREZofBiYiIzA6DExERmR0GJyIiMjt8lHwY+HdOdw7/dono7sDgZIJbt77Gl1otXwBrJvRvfbjnHr5qnGi8YbOeCRiYzIs8FvKYENH4w+BkJNmUx8BkfuQxkceGiMYXNusZafT6c2pGXmA6HPKTMfuTk3j/43a1XLLDDM+pSrfjHcdjsTDdEXvyw+Cgm3mbXMelI2fEWgEWdjMwe4o1JgzVq8S1M7iEGZjygDo9gI5vaPtk8x77aCIaX+6qzMnZ+dEegynkww+3y9l3NqPyhjqhmuAWgbcTn7/NgUm6gN2pvxUhCtCeT8fKZQmoNown/WgpTcDuS+qEEW739t3OY0NEdwab9YzU96m8dpzNjMDKV8KwckkQtp9W732IjCByRzoily3FogUhyPtEV9x+TlfmtSQE2Y26sgmPzIG7pwdm21lh6lwPMa7LKloKIuDlF4SVGw9A30N7y65YhEcHic8nYHuqWHZgFpTFdF5HaUIQNC+HIWBFFAqvKtUVZ9Oewaw1B9ArLvT1vcfwjFgP94AEvPFCAzKKZB4lPp8ZBN9lHko36St3nEGHyK/yX/HAS5kNKN2oK49UuqFXt++nEQgP1tc1bftwNRfxL0dhpaifuCMZvguWI+eKKB9k+/T4xCTR+MPgNFxXdmHL5yHY85ss7Ml/Ho2v7es60dZeewxJh4txNMEOhVXy5H0GmbHtCC4sRllJLkKHSBdsA9JFvWR4q9M6DZjguRO/mlWMjkXFSJrSoHxfx5HNKJz6OnLezELBJjtkZ5/QVRemPrcJSS/NUwKCsSbZ2uHSxQZl3DV8H4oOV4h1yYJH1V7Uwg6Bv6nA2+GO8E6U5RXYEWAnajZg9xaxfXnpyMw7iMArm5HfFXX66n/7gMb7n8UbG+eg5KYHihKnokEsY7DtI6Lxi8FpmNrrzuDS8TRoNCHQRO5Fy802pWlMspsyFZZyRH/v5uoZ1LrOwewR9RDuiNmPy6XawfZBXYl08fxJXMyP0q3Ha+8DX7Z3ZUoTHvGA92xrdcp4EyytlH9vHE0QmZBYriYW+/rJWLq0n8G5S7/F9jBZdy3ymzvQNmS61pfDzBnKfrMTAVJvsO0jovHrrgpOly9/3GMYCctJIkh4xyEnJ1cM+1CwPwKu6rw+JlnDVmQjSjNc+0Vc/KNSOiqsH7SD64sis5DrsesAirYs7c6Urp1B9ZUhbiAZ6mxHZekZ+C+eISZOIGOzJcLzxHKzkhH0kK5Kl071X8lSbN8DS/GLLLkvcrFn/wGsma7OG6FBt4+Ixi1mTkaSbybowS0EoVdi4ftyLBKTIqDZcVKd0Y+JHgj84V7EvBKBlb+4AOvZavkAatPk/ZxYlF5Jx0tLPLC9Rp3RD1vfaDi844+V6xKQGBeG+P36/A04m7cWkVt/O3SmoX6Pr99aVHvmIuYJWfgYXB89gMR1sQh/IR219yk1FbbuQWhJWI5Isd2Jyj2neQjWNCJ+hfj+pAREatJQq6var9HaPr0+x4aIxjw+Sm6k0XuUnEYbHyUnGn+YORlJvsuNzBOPDdH4w+BkJPmSUXmFTuZFHhO+AJZo/OHZ1gTyJaMMUOZDHgt5TIho/OE9p2Fglxl3DrvMILo7MDgREZHZYRsVERGZHQYnIiIyOwxORERkdhiciIjI7DA4ERGR2eHTesPAR8mHh4+BE5GxGJxMcOvW1/hSq+U79kaB/g9o77mHb20lor7YrGcCBqbRI/ej3J/9a0LOskcRXalO3oWqYryR86ncD/JfWaLbJ87O+kFfPjqadnpjyc4mZbwq5tGu8eE5huhl2Wj6NBtL5L9qab9knZhjQGUUnOW/hmSZcxSq1MkxxWB75L6Vv2W5Xwf/Tfe330RZ1zE39rjLz4zu72Nohr/V3tsxvP/PDE5Gkk15DEyjS+5PuV/7qNyKFJcspLmr06RywoYjan9kRwJQ4Hl7TtwLUj9GySp7derOqSqtg49/HVJGFCjHAx9k6fuhe8MFKWuHCPhYiLTLpdA8rE6axDDIjBZ7aF7fgLqtQ613TwxORpL3mIx27QwuXVPHh9LegLOfDJRB3AafX0T1kQpUiuGswTreOHfR+B5mO04g3m05cj5Rp0egv/0qT0ob1i5Up6hfD3shwLkO9d/o1fE36RiK6gKwfm0AcLDMpJPauObuC5/L51GvTo4Z8veKApSb8Hu9q4JTd2qsG0whH34wVktpAnZfUieGcioLiVV9O9C7La7mYuULu9D8jw5w+EdA+6U+KDajJHEXLqpTQ5owB2tykhHQu3fcYei7X8VJ6aALnNSrPsPmJqnHtNLs07e5Q9YxPM5y0H9G9/ljBk1k3dmHvvlFR9cUYfi53k1MfcpkM0bXd3aX65pzDJpnuppsBr5KXZAqr3zFFedhY66Adeuq31b9NvTZ1q7vlQybi6JQrpZKhs1PfdbdsOnNcP/HZBtsi7hyPxwK+4dDUSL/VSoPQNZJFRci7ltxWf6rV1mEOn8vsYy+J7WB96cR83bqjpH+uMqyrm3Q15Xb1Wdf6Y9n//u6Z7nYDw1qsWC/qlRpBZAZ6eCtAUbsN7FfDvn7YoE62eMYdK2z4foK/dYR+vxe5TYsQsrleqR4ijL9sR7o8z2Of5laKPW3HfZY7A8UHOneq0Nh5mSkvk/ltaM2LQS+y2SvrsuRcU6WNSP/FQ+8lNmA0o2y3AORSk+xwNnMILWuB1buOIMOUab0CLuxGI2ZIUq5V5quN93qjcuRd1UZNRjv7/tUNw4g/IfPYLthWX/+2ICW2UvhP9sRDrM9MPsRCxFJ9yJySQgyrhQjXq7Dkgjkt+iqy+9OTE/ASvmdfsmovikKlfpLRZCLRaFaT253XlwCMhLENno+A6+EE2JtpXZUJy3HynURCJg9A7MWdC9br89+/bQedc6Pw0mdHJQ8oRk2d7zefeJ0ijnaNa8ypufS6lNTgNf18+oQ1vteh9C0c5U4Jfb8nJPIVIoMTkbll2VDm0r+R18Lg+YX9FjuodVF8FXnZbmkIMwg4A6LbPoUp+3FD8sTyqqu7bl8OQtY3X1i6t7Wo9ggPrFNWX/5mTDUde0jX5xPHfhavHvds+BzMEUXgOT2rhYZrr6Z0fu8OKnp6o+cWL+tdQjwlKe1/k9qg+3PQecd1B0j2WwpA1MYsnTrL4ZK/wK4y2PmHiX2lUFA7AoIA+/rqhhxUnfRL2unyPYO6T47Kg4hTB8ESn27g7gMDnLaYP37/K4GrCMCmGcBAvTH7/JWsX3yYkj8TpzV5mP5PQN9fhjH397RBfWXr6hTQ2NwGrbTKCydgaT9FSgrOYA102WZHQJ/U4G3wx3hnSjLK7AjwE6p7Rq+D0WHZVkWPKr2Kt2Yz44W04lL4RCeq9Qti56j1O1ff9+nmjQPmsRN8BvqjO4WgV9oE+C1IhZ51c1KgITt89hRkos1k5ciSa5DSToCbZXaQgMuWoZgj1jvN/xOouRDUaTUr0CSt65Glytn8J0XxTYeyUXQ2WKclWVXD2D7zQjs2Z6OgtSlsPQNM1i28epTF3Vdobn3OInKk4X6n3a1OBnU1YuSoTnF7OzKRuxXbRAn3KLuq0xJ/McLOxiArCgXtUDHxT8AdaX6q8mtKHAOQFeN+vPiP14K3PUnkV7r4/OG/M+vs2DtBrWpytjMSE+9olWWL06yylXpFZzXX+kq3x0mTmXdzX3d2ypP8k6oa5BrJD4jTr9ZXfeVFmJ9rwBuqHvdF8LXvx7n5SGQ2+u/oXvd5QndWR0fqU/LRGiQgVc3ae/Zt2mv//2pM+i8KP2VfBPq63yQZZCtdf8WegbE7mbmgfZ172WJ4xrlo46PBvWe05ENcDL4rTY11IltC1PXRfd/o/fJf8A6SsA1OH4DGPDz4vjD4P/RqB5/FYPTsM3D+rh2bPETmdDGvTj7uVo8gBtHExAeHAKNJhb71KzININ9nzVm/9gDDhPVyYHca60EzaN5YbA9EgYfkeEoAWpAjlji7qiMOWgOIGm+MjqAqZjyiPzXAhPuUwpE0LTDlLP/icIrDSg8fBKzH5+qzjBN/1mQDEyLcD5KvXKT/3HVOSMjlrtWnBpf76dZxdELAXW6zEGesAI8e32jf/dVuDIM1DQzbAYPRChXunoGN8yVYYiAJ7NTdXS45EnLyXmyOjW6mo4U9Az0nili2rT7FSPVFRDFhUpKXXeg7H9fy6Clzr6dHg5Flsj0DR8QMfy/oQyGTaOq/uqYcvwG+vztdlcFpx47WAwjNWlRAvaILOKN+WcQuf2EWqrqcZ//BDI2WyI8Lxc5WckI6n2vpnOAByI6G3DJ4N7VwN/XjsbqM7hh7DMbEx3hHhOBqXWNMLzbpTXhmQ+jXD6JS4uehW1jI2xfKUaqtxEdAz7sBBejbvjKE4ITHlfjg3JC040Oqd7gSrppZ0qPNvy6ratQ4G9wRdiDvCJ2EVfU2SgSmUePOk6Pi6tatcmrH4f0GZdQ9XqKCGReYmkywI70yajJeNz5kGlPtCn3cfRNfNIxbBukWa8/ysk7dWt3ximbGUflBN2E8oMwCMK6oTIGPZpt+9+fOoPN62YPJ5dDPZpee/wWRCDY4FKAba8XwKUr2xpoX8uM0rBcHNeto9ms101mdy6pq5TfjNJMZngM+jFQHd3x0y1nMIN/3rTjb+oFDTMnI8m3G/Qg770ERyAxKQHxuxrg59/dJGfrHoSWhOWITBLzlXtOj8H10QNIXBeL8BfSUavPLKRZS+FaEAZNnJiXqbvnNHW2NbIjIxD5QjKaJ6vZxiDfhxu/Reora7F7iIuZloIIeK0IQ3xcGHz9dsHhX5ZD18pmB/cVzUgMEMtfl9DnvlAPNWnK/bH40gZkaLrvk/Xrkamw3puG7e+8hdTw55Xt092L6tZnvyonAGOeQpNNUeKEpTaxhF12MTpzcnI539WG734wAJUGV5v14rTd3dzVD3dfcXIQJzzvXleo8uavvO/V1eTT82+FfEQ405fL+xyj96i2bBrMEuvU3fTZ82Z+f8Rn5KO9q/XrWoTHB2nW65d6Fd99L+TxwZt1KqN67I8B9WrS05MnQ8MmrcH2p7H7ekHqUWyoM2iy6vVbWODtgkMHXeDb9RDDwPt6Qaph+SoREAdr1pMXJQYPLJhE/d3Lx8ndt+rumerXRQx9/pZooDp9fq/69dE1aSrlyv23gT9v0vFXLzp09xGNwzdEGOmLL7/i3zmZqGVPELZY7sQOX0sx1SD+Q2ZhyuFkzNXNVsg3RXz3/u+oUyr9Tdh+mihGSj7BFoad3+jf8cgb70XeQz2pNdbJJ8TkgwiGzY3dmnZGodxz6+DNjUYabH+OjX0t9pUIMGm34fetM/ixuCP0DwyZ0NTNzMlI8n1wZBrrx+fgeuYqkUEmiKwvDLUrXsBsdZ5ev/tV3lwVV7R9rgLJbPVuHu1Jd9Ws//OAu558TP423a9T9H7c/I6T93FTDJpHjcPMyQTMnkZXv1nTbcbMabTIq3P5tJrKeQMqR/0BkP6N/czpNpHZiXx4RHlwxpSnQM0Tg5MJ+OLX0cMXvxLRYBichoFdZgwPu8wgImMxOBERkdnhAxFERGR2GJyIiMjsMDgREZHZYXAiIiKzw+BERERmh8GJiIjMDoMTERGZnXEUnOTrVOQbcqdhU41apNepnzfcNwETEdE3adxlTlbfs8C7pR+oUzrakgIc4ntbiYjGDLMKTn/+85+Rk5OtDHJ8OGwedgL+Iw+HbqoF0KL8cDncZj+lThMRkbkzm+Akg9Fzz63A1atXlUGODytALQ7ATyzKUVap9i77WQHyKhcjINBaN61qO52NiPlqR1nz12LPZVFf9iOk7zxLHZQO0jpbUR7vh+lq2XS/OJR/pi5IkG+67v5Md8+m8g3J/XX8ppQrPXC24tCqRzEr9pgIoUREpGc2wengwQNYuHAhXn01QRnkuCwz3VMIXmWvZEvyhN96pAinPL2xeKJurkIErIifFuHxnR/h8uWPUBJUj00vZ6DefavaJbTIvmQXAGK8ZJUNquK9EVHqhLTjH+Hc6VL8yr5MfH5bV7fgbX9tA57LwuUjG4zujZWIiAY27u45SU5LfGFfuRvvftaEQ/tOwec5H1io86SmkjzUdNZh27JpItOZhiU7RJhpvtonw9H5AOXvtcEtJhaLH7SAxUQnBIQHw6a5DFVKhtSK82da4TJQ52GXU+CuZlVzVxWgvlMtV9jAZ+fH+DB5YY/1IyK625lNcPL3X45jx45h06YEZZDjsmxYnIMR+sQplO3IQN6nwQjor0tIi2DsE5mRzJR0w+BdGltMtFLH9EQ4uU/881kZ3q1xgq/7AN2sqRnY5d9vhsvxOORUq+VERDQgswlO3//+9/Hee/vx0EMPKYMcl2XDY4PFPjNR814BWgN94dbrST37uQthr83DpjfroBWZjLb1A2x7W94D6s9TWOxvgaqEWJR/poX2Zj0KMvPQOs0Xi+2AU1nbcMotFD5D9Tp5sw1t6mg33nMiIuqPWTXryWCk0YQqw/ADk47Ncz8TmZANNMtnqiUGnNdj3+sBQLofpj/2KKYvSUGTzUB9+ltgQWIhXn3yFKLnT8P0J7yxvT0Yuf8eCuz0RtBuEXJq4jBXNt0pXSTXI8Wz+6GIrma9ReI7PDdDM1ctJyKiAbGzwRGQT+m5HwxA5eFQdDfqyT/4TcHj46APfyKiO2VcPhBBRERjGzMnIiIyO8yciIjI7DA4ERGR2WFwIiIis8PgREREZocPRAxDx9/+hr/9vRO3bt3C12N4733rW+Lq5J578O377sWEb39bLSUiuvMYnExw69bX+FKrRWfnLbVk/Lj33ntwv4WFCFYiYhER3WFs1jPBeA1MktwuuX1EROaAwclIsilvTAamTi06DN+E3iGm1dHe5PbJ7SQiutMYnIwk7zGNPe2oTngeW2q6M6KWgjCs3tWgTvU1NreTiMabu+qek+xTyZDsKsNY7V/cHHMPP7SXRmB1SxT2aBzVEqkdpetC0PDzA1jjohYZkA9JWH7XsGdGIqJvHjMnI/UNTGeQ8dOl8F3iAa8lQdh+Ws1OjsciJisXkcuWYtGCEOR9IgubkReXhpzUIPh6PgOvhBMiREgnEL8iARkJstwDvqkndE1unxxAjFi2l1h2QPQBNIpkpjFzKTR7ryufQudJpC5LRq1Mcjqvo1R8XvNyGAJWRKHwqq4K0IDdb03Az543DEySJbwjPHA0u7jf5r2x/PQhEY0fDE7DNgNr3ilGUUkFyjKfRfV7J9Vy4P1GOyQVFuNo5hwRICp0hVfeB1bkouhIBdZ/vhUFStASPrkAqxf3ifIs+NcUo1YElYyoCri/VYwysewkhyxsP6KFw4oQoOS3uCE/818VeH/+Usy+F+g4shmFU19HzptZKNhkh+zsE8pi0fI+qn/wLNz7S4Imz8PsD0+K7yIiMk8MTsMlMpbKpDCs1IRAE78XjWqxZDdlKixlB4cuMzD7SjNalNKpmDJZdsZuAdeZIq/5o1IoAsWP4f6IHHGEZn8y5oosq+W+OXC1VOZiiusMtFwTGdMDyxFofQAlV7Uo3XsS3itmKPMvnj+Ji/lR0Mj1eE0EwC/bdQFMZFUdlpaYoNTqzRq2D/DJPCIyX3dVcOrukl03jEhNOrZYRmBPTi5yEp6Hg1rcw7mTODvFAbbqpE47aj8UoarfD0hWsLrZjGb1uYQbLdfh8IC1GLOAu6cdCt9JR+X/BCFI7RvR+kE7uL4oMie5HrsOoGjLUkySMyZawvpP13WBqo/rImDaiRBFRGSemDkZST4o0MPkGXDcn4DIOJE9ZXY36UmNebGIT4rAylfb8YuYeWppMbavS0D8yyEodUtD8ENqcR8zEB6jReKKMMSvC8Lq2qUI95QZFzDB83nM/s9cYPlyXQASbH2j4fCOP1aKZSeKdYnfr96XmjQPi746gIpruskeaovx/sw5mKJOGuqznUREdwDfEGGkL778yri/czoei4DGCBS8YKcWSM3IC0yHQ75stvsGnU6Gb/4c7NnsAbWVEOhsQM4LW2GbmQ7vrsJu8k0R373/O+oUEdGdwczJSPL9c2POE7HYMWUXth/vvr/UuCsZDT9P7jcwSWNyO4lo3GHmZAKjs6cxilkTEZkLZk4mkC9GlSfw8Uj/4lciInPAzGkY2GUGEdHtxeBERERmh816RERkdhiciIjI7DA4ERGR2WFwIiIis8PgREREZofBiYiIzA4fJR+GsfZ3Tvx7JiIaaxicTHDr1tf4Uqsd068w0r8J4p57+PpxIjJfbNYzwVgPTJJcf7kdRETmjMHJSLIpz9wDU0eHYdDRiml1tBe5HXJ7iIjMFYOTkeQ9ptFQmzQHATkN6pSJ2htw9pMBsp5PcrE6bJ/aJbxwdZ+YzkXjAKs9WttDRHQ73FX3nJydH1XHdEzpqr39i5uj8vBDx9WLaLSciin/qBaYot+ODIXOi8h4YRemZibD3aCfpvbSCGiuiPoRU9WSbvIhCcvvTlSniIjMC4OTkdr+56Y6pncC8SsqYOt6AaXV1wHPBLwbMw8TOq+jNHEt8v/bCu2tlgjesRV+DzUj/5UQZF8RH/vLdViFF6sBph1nM2OxpU5kQ1faMDs5F+uesFB6qy2MiUZGXRss7n0MwW+lw+EdD8QXXccNrTUmfU989NlklEXPkSuCjtIorJRBK9xRme7WgIwV6XDM2wrvfuKQ1T8wOBGReWKz3kh8cgFWL+5D0ZEs+NcUo1YUdRzZjMKpryPnzSwUbLJDdvYJUWqHwN9UoKykAm8bBpAru7Dl8xDs+U0W9uQ/j8bXdM1yjW9FoPCH6Ur9osPpCLQFZkeLzycuhUN4rlKuD0xSbc1FLFrQOzBJjnjG7SRqT6mTRERjBIPTSEz+MdwfkSOO0OxPxlwxdvH8SVzMj4JGEwLNa+8DX7bjhqzSj/a6M7h0PE1XN3IvWm62QeRgaGmxgPv8Xk13g+m0gNUA3a5bP2ADLW8vEdEYc1cFJ9mMZzjcDtYP2sH1RZE55eQiZ9cBFG1ZiknqvN4sJ9nB1jtOVzdnHwr2R8BVllu2ovZ8u65Sb519H4iwtNSiZYAIeP0aYGutThARjRHMnIwkHyAwhq1vNBze8cfKdQlIjAtD/H6ZCw3ALQShV2Lh+3IsEpMioNlxUil2DU+GdaZuGZGaCBTqH8GbtRSuBWHQxMUiPFNXV3JdNA/vl3RPd+k8idLjczB7ijptwNjtISK6E/iGCCN98eVXo/J3To05y7Hddi92eFuoJaPhOgpfXosbsfugUZoZdRpzgsR37RTf1bfNT74p4rv3f0edIiIyL8ycjCTfSzd8J7F9WRAi1wVh9YfLsc5zNAOTZA2/1yLQkJyFRrUEn2QhtTECSf0EJmlk20NEdHsxczLBaGVPdxqzJiIyd8ycTCBfmCpP7GOZ/sWvRETmjJnTMLDLDCKi24vBiYiIzA6b9YiIyOwwOBERkdlhcCIiIrPD4ERERGaHwYmIiMwM8P8B/ieBQwgSQ7kAAAAASUVORK5CYII=;" vertex="1" parent="WIyWlLk6GJQsqaUBKTNV-1">
          <mxGeometry x="-90" y="810" width="423" height="237" as="geometry" />
        </mxCell>
        <mxCell id="NsZ-KhTiiolm1iS4KSTE-27" value="breaks(&lt;span style=&quot;font-weight: 400; text-align: left;&quot;&gt;перерывы&lt;/span&gt;)" style="swimlane;fontStyle=1;align=center;verticalAlign=top;childLayout=stackLayout;horizontal=1;startSize=26;horizontalStack=0;resizeParent=1;resizeParentMax=0;resizeLast=0;collapsible=1;marginBottom=0;whiteSpace=wrap;html=1;" vertex="1" parent="WIyWlLk6GJQsqaUBKTNV-1">
          <mxGeometry x="-740" y="210" width="360" height="138" as="geometry" />
        </mxCell>
        <mxCell id="NsZ-KhTiiolm1iS4KSTE-28" value="- breakId(идентификатор перерыва): int" style="text;strokeColor=none;fillColor=none;align=left;verticalAlign=top;spacingLeft=4;spacingRight=4;overflow=hidden;rotatable=0;points=[[0,0.5],[1,0.5]];portConstraint=eastwest;whiteSpace=wrap;html=1;" vertex="1" parent="NsZ-KhTiiolm1iS4KSTE-27">
          <mxGeometry y="26" width="360" height="26" as="geometry" />
        </mxCell>
        <mxCell id="NsZ-KhTiiolm1iS4KSTE-32" value="- starTime(начала времени): float" style="text;strokeColor=none;fillColor=none;align=left;verticalAlign=top;spacingLeft=4;spacingRight=4;overflow=hidden;rotatable=0;points=[[0,0.5],[1,0.5]];portConstraint=eastwest;whiteSpace=wrap;html=1;" vertex="1" parent="NsZ-KhTiiolm1iS4KSTE-27">
          <mxGeometry y="52" width="360" height="26" as="geometry" />
        </mxCell>
        <mxCell id="NsZ-KhTiiolm1iS4KSTE-31" value="- endTime(конец Времени): float" style="text;strokeColor=none;fillColor=none;align=left;verticalAlign=top;spacingLeft=4;spacingRight=4;overflow=hidden;rotatable=0;points=[[0,0.5],[1,0.5]];portConstraint=eastwest;whiteSpace=wrap;html=1;" vertex="1" parent="NsZ-KhTiiolm1iS4KSTE-27">
          <mxGeometry y="78" width="360" height="26" as="geometry" />
        </mxCell>
        <mxCell id="NsZ-KhTiiolm1iS4KSTE-29" value="" style="line;strokeWidth=1;fillColor=none;align=left;verticalAlign=middle;spacingTop=-1;spacingLeft=3;spacingRight=3;rotatable=0;labelPosition=right;points=[];portConstraint=eastwest;strokeColor=inherit;" vertex="1" parent="NsZ-KhTiiolm1iS4KSTE-27">
          <mxGeometry y="104" width="360" height="8" as="geometry" />
        </mxCell>
        <mxCell id="NsZ-KhTiiolm1iS4KSTE-30" value="+ getDuration(Ввод продолжительности перерыва): float" style="text;strokeColor=none;fillColor=none;align=left;verticalAlign=top;spacingLeft=4;spacingRight=4;overflow=hidden;rotatable=0;points=[[0,0.5],[1,0.5]];portConstraint=eastwest;whiteSpace=wrap;html=1;" vertex="1" parent="NsZ-KhTiiolm1iS4KSTE-27">
          <mxGeometry y="112" width="360" height="26" as="geometry" />
        </mxCell>
        <mxCell id="NsZ-KhTiiolm1iS4KSTE-33" value="" style="endArrow=diamondThin;startArrow=classic;html=1;rounded=0;entryX=-0.004;entryY=-0.077;entryDx=0;entryDy=0;entryPerimeter=0;endFill=0;endSize=10;exitX=1;exitY=0.5;exitDx=0;exitDy=0;" edge="1" parent="WIyWlLk6GJQsqaUBKTNV-1" source="NsZ-KhTiiolm1iS4KSTE-32" target="NsZ-KhTiiolm1iS4KSTE-20">
          <mxGeometry width="50" height="50" relative="1" as="geometry">
            <mxPoint x="-340" y="340" as="sourcePoint" />
            <mxPoint x="-290" y="290" as="targetPoint" />
          </mxGeometry>
        </mxCell>
        <mxCell id="NsZ-KhTiiolm1iS4KSTE-42" style="edgeStyle=orthogonalEdgeStyle;rounded=0;orthogonalLoop=1;jettySize=auto;html=1;entryX=0;entryY=0.5;entryDx=0;entryDy=0;" edge="1" parent="WIyWlLk6GJQsqaUBKTNV-1" source="NsZ-KhTiiolm1iS4KSTE-35" target="NsZ-KhTiiolm1iS4KSTE-19">
          <mxGeometry relative="1" as="geometry" />
        </mxCell>
        <mxCell id="NsZ-KhTiiolm1iS4KSTE-43" value="один ко многим" style="edgeLabel;html=1;align=center;verticalAlign=middle;resizable=0;points=[];" vertex="1" connectable="0" parent="NsZ-KhTiiolm1iS4KSTE-42">
          <mxGeometry x="0.0117" y="-1" relative="1" as="geometry">
            <mxPoint as="offset" />
          </mxGeometry>
        </mxCell>
        <mxCell id="NsZ-KhTiiolm1iS4KSTE-35" value="manager(руководитель)" style="swimlane;fontStyle=1;align=center;verticalAlign=top;childLayout=stackLayout;horizontal=1;startSize=26;horizontalStack=0;resizeParent=1;resizeParentMax=0;resizeLast=0;collapsible=1;marginBottom=0;whiteSpace=wrap;html=1;" vertex="1" parent="WIyWlLk6GJQsqaUBKTNV-1">
          <mxGeometry x="-780" y="484" width="380" height="164" as="geometry" />
        </mxCell>
        <mxCell id="NsZ-KhTiiolm1iS4KSTE-36" value="- managerId(идентификатор руководителя): int" style="text;strokeColor=none;fillColor=none;align=left;verticalAlign=top;spacingLeft=4;spacingRight=4;overflow=hidden;rotatable=0;points=[[0,0.5],[1,0.5]];portConstraint=eastwest;whiteSpace=wrap;html=1;" vertex="1" parent="NsZ-KhTiiolm1iS4KSTE-35">
          <mxGeometry y="26" width="380" height="26" as="geometry" />
        </mxCell>
        <mxCell id="NsZ-KhTiiolm1iS4KSTE-40" value="- name(имя): string" style="text;strokeColor=none;fillColor=none;align=left;verticalAlign=top;spacingLeft=4;spacingRight=4;overflow=hidden;rotatable=0;points=[[0,0.5],[1,0.5]];portConstraint=eastwest;whiteSpace=wrap;html=1;" vertex="1" parent="NsZ-KhTiiolm1iS4KSTE-35">
          <mxGeometry y="52" width="380" height="26" as="geometry" />
        </mxCell>
        <mxCell id="NsZ-KhTiiolm1iS4KSTE-39" value="- department(отдел): string" style="text;strokeColor=none;fillColor=none;align=left;verticalAlign=top;spacingLeft=4;spacingRight=4;overflow=hidden;rotatable=0;points=[[0,0.5],[1,0.5]];portConstraint=eastwest;whiteSpace=wrap;html=1;" vertex="1" parent="NsZ-KhTiiolm1iS4KSTE-35">
          <mxGeometry y="78" width="380" height="26" as="geometry" />
        </mxCell>
        <mxCell id="NsZ-KhTiiolm1iS4KSTE-37" value="" style="line;strokeWidth=1;fillColor=none;align=left;verticalAlign=middle;spacingTop=-1;spacingLeft=3;spacingRight=3;rotatable=0;labelPosition=right;points=[];portConstraint=eastwest;strokeColor=inherit;" vertex="1" parent="NsZ-KhTiiolm1iS4KSTE-35">
          <mxGeometry y="104" width="380" height="8" as="geometry" />
        </mxCell>
        <mxCell id="NsZ-KhTiiolm1iS4KSTE-38" value="+&amp;nbsp; viewReports(Просмотр отчётов): string" style="text;strokeColor=none;fillColor=none;align=left;verticalAlign=top;spacingLeft=4;spacingRight=4;overflow=hidden;rotatable=0;points=[[0,0.5],[1,0.5]];portConstraint=eastwest;whiteSpace=wrap;html=1;" vertex="1" parent="NsZ-KhTiiolm1iS4KSTE-35">
          <mxGeometry y="112" width="380" height="26" as="geometry" />
        </mxCell>
        <mxCell id="NsZ-KhTiiolm1iS4KSTE-41" value="+ approveVacationRequest(Запрос на одобрение отпуска): string" style="text;strokeColor=none;fillColor=none;align=left;verticalAlign=top;spacingLeft=4;spacingRight=4;overflow=hidden;rotatable=0;points=[[0,0.5],[1,0.5]];portConstraint=eastwest;whiteSpace=wrap;html=1;" vertex="1" parent="NsZ-KhTiiolm1iS4KSTE-35">
          <mxGeometry y="138" width="380" height="26" as="geometry" />
        </mxCell>
        <mxCell id="NsZ-KhTiiolm1iS4KSTE-44" value="report(отчёт)" style="swimlane;fontStyle=1;align=center;verticalAlign=top;childLayout=stackLayout;horizontal=1;startSize=26;horizontalStack=0;resizeParent=1;resizeParentMax=0;resizeLast=0;collapsible=1;marginBottom=0;whiteSpace=wrap;html=1;" vertex="1" parent="WIyWlLk6GJQsqaUBKTNV-1">
          <mxGeometry x="-620" y="20" width="370" height="138" as="geometry" />
        </mxCell>
        <mxCell id="NsZ-KhTiiolm1iS4KSTE-45" value="- id(идентификатор): int" style="text;strokeColor=none;fillColor=none;align=left;verticalAlign=top;spacingLeft=4;spacingRight=4;overflow=hidden;rotatable=0;points=[[0,0.5],[1,0.5]];portConstraint=eastwest;whiteSpace=wrap;html=1;" vertex="1" parent="NsZ-KhTiiolm1iS4KSTE-44">
          <mxGeometry y="26" width="370" height="26" as="geometry" />
        </mxCell>
        <mxCell id="NsZ-KhTiiolm1iS4KSTE-49" value="&lt;span style=&quot;background-color: rgb(255, 255, 255);&quot;&gt;-&amp;nbsp;&lt;/span&gt;&lt;span style=&quot;white-space-collapse: preserve;&quot;&gt;employeid(&lt;span style=&quot;white-space-collapse: collapse;&quot;&gt;идентификатор сотрудника&lt;/span&gt;): int&lt;/span&gt;" style="text;strokeColor=none;fillColor=none;align=left;verticalAlign=top;spacingLeft=4;spacingRight=4;overflow=hidden;rotatable=0;points=[[0,0.5],[1,0.5]];portConstraint=eastwest;whiteSpace=wrap;html=1;" vertex="1" parent="NsZ-KhTiiolm1iS4KSTE-44">
          <mxGeometry y="52" width="370" height="26" as="geometry" />
        </mxCell>
        <mxCell id="NsZ-KhTiiolm1iS4KSTE-48" value="- workTime(рабочее время): string" style="text;strokeColor=none;fillColor=none;align=left;verticalAlign=top;spacingLeft=4;spacingRight=4;overflow=hidden;rotatable=0;points=[[0,0.5],[1,0.5]];portConstraint=eastwest;whiteSpace=wrap;html=1;" vertex="1" parent="NsZ-KhTiiolm1iS4KSTE-44">
          <mxGeometry y="78" width="370" height="26" as="geometry" />
        </mxCell>
        <mxCell id="NsZ-KhTiiolm1iS4KSTE-46" value="" style="line;strokeWidth=1;fillColor=none;align=left;verticalAlign=middle;spacingTop=-1;spacingLeft=3;spacingRight=3;rotatable=0;labelPosition=right;points=[];portConstraint=eastwest;strokeColor=inherit;" vertex="1" parent="NsZ-KhTiiolm1iS4KSTE-44">
          <mxGeometry y="104" width="370" height="8" as="geometry" />
        </mxCell>
        <mxCell id="NsZ-KhTiiolm1iS4KSTE-47" value="+ generateReport(генерация отчётов): string" style="text;strokeColor=none;fillColor=none;align=left;verticalAlign=top;spacingLeft=4;spacingRight=4;overflow=hidden;rotatable=0;points=[[0,0.5],[1,0.5]];portConstraint=eastwest;whiteSpace=wrap;html=1;" vertex="1" parent="NsZ-KhTiiolm1iS4KSTE-44">
          <mxGeometry y="112" width="370" height="26" as="geometry" />
        </mxCell>
        <mxCell id="NsZ-KhTiiolm1iS4KSTE-50" value="" style="endArrow=diamondThin;startArrow=classic;html=1;rounded=0;entryX=0.154;entryY=-0.008;entryDx=0;entryDy=0;entryPerimeter=0;endFill=0;endSize=10;exitX=0.809;exitY=0.875;exitDx=0;exitDy=0;exitPerimeter=0;" edge="1" parent="WIyWlLk6GJQsqaUBKTNV-1" source="NsZ-KhTiiolm1iS4KSTE-47" target="NsZ-KhTiiolm1iS4KSTE-12">
          <mxGeometry width="50" height="50" relative="1" as="geometry">
            <mxPoint x="-340" y="158" as="sourcePoint" />
            <mxPoint x="-132" y="339" as="targetPoint" />
          </mxGeometry>
        </mxCell>
        <mxCell id="NsZ-KhTiiolm1iS4KSTE-51" value="" style="endArrow=diamondThin;startArrow=classic;html=1;rounded=0;entryX=-0.008;entryY=0.061;entryDx=0;entryDy=0;entryPerimeter=0;endFill=0;endSize=10;exitX=1;exitY=0.145;exitDx=0;exitDy=0;exitPerimeter=0;" edge="1" parent="WIyWlLk6GJQsqaUBKTNV-1" source="NsZ-KhTiiolm1iS4KSTE-44" target="NsZ-KhTiiolm1iS4KSTE-0">
          <mxGeometry width="50" height="50" relative="1" as="geometry">
            <mxPoint x="-250" y="67" as="sourcePoint" />
            <mxPoint x="-5" y="287" as="targetPoint" />
          </mxGeometry>
        </mxCell>
        <mxCell id="NsZ-KhTiiolm1iS4KSTE-52" value="" style="endArrow=diamondThin;startArrow=classic;html=1;rounded=0;endFill=0;endSize=10;exitX=0.003;exitY=0.058;exitDx=0;exitDy=0;exitPerimeter=0;entryX=0.024;entryY=0.005;entryDx=0;entryDy=0;entryPerimeter=0;" edge="1" parent="WIyWlLk6GJQsqaUBKTNV-1" source="NsZ-KhTiiolm1iS4KSTE-49" target="NsZ-KhTiiolm1iS4KSTE-35">
          <mxGeometry width="50" height="50" relative="1" as="geometry">
            <mxPoint x="-930" y="75" as="sourcePoint" />
            <mxPoint x="-810" y="170" as="targetPoint" />
            <Array as="points">
              <mxPoint x="-800" y="240" />
            </Array>
          </mxGeometry>
        </mxCell>
        <mxCell id="NsZ-KhTiiolm1iS4KSTE-53" value="" style="shape=image;verticalLabelPosition=bottom;labelBackgroundColor=default;verticalAlign=top;aspect=fixed;imageAspect=0;image=data:image/png,iVBORw0KGgoAAAANSUhEUgAAAXQAAADkCAYAAACIct+kAAAAAXNSR0IArs4c6QAAAARnQU1BAACxjwv8YQUAAAAJcEhZcwAADsMAAA7DAcdvqGQAADMuSURBVHhe7Z0LdBTXnea/+BFNnIXZiWGcA3IYEJZxK8bxxBAyfgAiAsEgWeAInAHjRKCxsOSDEWflFoPXYmCM0BoBx7wSgbxgWAM9BiEx0EZBSH6MCfKujT20sUwLexBsHHDGiyY4IsHZ+69Hd3V3deuBEOrS9+PUoerWrVu3qltf/e+/quv7Wmvr7/4EQgghcc8Nxv+EEELiHAo6IYQ4BAo6IYQ4BAo6IYQ4BAo6IYQ4BAo6IYQ4BAo6IYQ4hHYEvR6Lku9AsjEtqjOKY3IR775ciKz7jO3uHo+Cze/i4hVjdW/iih+V07+PRbUX0bI5XfW3EA3Gqh7j4iEsuu9hVDYby4QQ0kViC/qnQGbtx2hqUlOtG7689gXv3WXjMXPZu0gp3oe6t46gqmwSzq+agdTieiX1vYvzry5F6U0L4U7rb5RcB/pPhHtBAkpLPDhvFBFCSFeILehDxmHsEHN+ErKTffArkY/Kr7ej9OU2ZKzfh396xIXEgYlwTXZj10uz0Va1FFuajHq9ghbUbHsbE+dkY6BRcr0Y+MhjmHh0C2pinVtCCGmHjufQP30NHmRjoinwNrS904B3MRGZqWER75ixyFQC+u57x1E5NZjC0SeJ+ltsytVUVI+2/flqPhc1l4y2LtUgN/m7WHpUzV85j0NLHsZ9d0n97yLr5z7Vzy2YrLbV0kOX6vEP992B+1Q7EaOD82+jvumHGPuDBKMgCsY+7tb6pPaxQrUl6aPz9Vg6/fuBvt6f74Ff1fXMUcv5NWjTt4Z/7Xgkj18Nv5q/+N4WFDyk109+KB87moxat4zB2DF+1P9Kj9Ebijqa3iKEkCDtCrqeWxaRAir2z0WiUW7H+V+fAZJTkHSjURBgOJKS1fqLtyJnv6RwKpChSjM2yXw5xuqVgKwKPb3TdARuVV9ISE1Xl4h6VNfp4nd+vwcNg+di9hjg3efTUeBNxDP7/jc++FU5kn7zG62OzkU0lCyC5ztqhLBiHCKSKp+1KJFNxF+2E57LPhZfzsdbH6p+yT7+Vy4WH1R9+ebtyC49gg+kv0fcSKxdjMq3BiJzxkSg1otD2gXIj+qqFtybMxtJv/ag4CfVSNn8b+r4/g0HZ/qx9IkNmtCrGB1/OVjVPsOkCyGk67Qr6InzvLrIroeKjNNRGSMtkND/L4EmvyFSVk7B36Ta+nYXkhu3ZGD23yWgYf8hFfWeR/3+t3WBVGOB6t0XMaaoBNnJ/ZHwFxOxcM5wYyPAt+4x5NaNRcX/nGtzgVH85gzOJyepdmJRj39++SIuVuXro4Af5KNGabn/10p4E/qj5eAizHzob3Dfj0pVb4Df/9G8AB1CvYwgPq3HobP3IjNtoKq7HUev+LB66ne1SH/yWnWWzp5RYxOdpKQknP9MvyCNLfsYq1K1WUII6TAdT7kMmYuKIsBTa0pQJAO/d6+KeatRXRua4GirU2W4F+Puaye9EYUxf6dGBqqNQ0oga47+ED9OlwvD/8NlJa4JtwRj78QhwfFD4vAk9L+oLi4XjIJw/vzPkWB78YlkzPJ/NUYO+nRwXiLeLVOjg9p78bz3X/HOh/qIQ8O4ANV46+Gv9cCf9hh+/G1jXcJs7LK0Yx2d+P1+DLxNXRAJIaSLxBT0lrr6QAQp0erqMiA7TYmm5KmnbrGsM0h+Es89osQs/2H8w6s+tJxvge/VxcjKr0HCY8WYZQpbZ0mejbnfq8eG/C04mpaNTC3Q/yHGpAENJYXwNF1E2yU/PPslTtbpn16CVVktKJ1RiAa7x2u+41KXmBb8JiTL0YaL58/jvDapNq/o+zhatgKHzqurx5U2+F9dDY8apVz8D9WoGnEkJqhxw351sTFaEMakZyPhYCWWHvAj45EMyGUs8f5xSGzbjqU/96l21Z7Ov43VL9XrG6iRx2/Oqij9dn0Ewxw6IaQrxBR0ibZTjZt+cmMSm7zIiXFTVIWgGLv8CHYVufB2ycNIvX88skreRtKi3ah79l6jTlcYiB/PGQd/UwtmPaYLpOwro9yL537gwz9O/T7u/t7D2HHWOgLoj7ErdsP9nRrk/nQL/OHPwQ/8IcYlv42GX+m5eZ1DWHT/3+B+bZqBHS1qH9LGD46i4P7vIvmu7yN3XwKGK90dm+fGvb9ajPtUWcH54ZhotKAxJhM/xts4+vFsZJshePJC7FqfDax7GHffdQfunlyKloFGiujSUTQcTcK4H3QhJUUIIQZxY3DRtj8XdxcnYtcHz6nIuns4v3sO7v/niXhr9+zr+uji+Zdn4P63HsM7mzIib94SQkgH6XgO/brRhotn38bqTfVwFc7tNjEXBj7yHNx/XI3SsJx/j3LxEErXtsFdTDEnhFwdvT9CrytEcl4NBmaVo2pFBgbaPbFCCCEkflIuhBBCYhMHKRdCCCEdgYJOCCEOgYJOCCEOgYJOCCEOgYJOCCEOgYJOCCEOgYJOCCEOgYJOCCEOgYJOCCEOgYJOCCEOgYJOCCEOgYJOCCEOgYJOCCEOgYJOCCEOgYJOCCEOgYJOCCEOgYJOCCEOgYJOCCEOgYJOCCEOgYJOCCEOgYJOCCEOIU4FvQWVU+/A5M0txvK1pWVzOpKT78CiOqOAEEJ6IfEp6J++Bo8rA66ycjQYRdcCU8hzsRlNTR9jVaqxghBCeiFfa2393Z+M+R7ht7/9Laqq9mrzWVnT8K1vfUub7wwitKuHeZHpvQPV6ddIaD/dgsn5QMX+uUg0igghpDfToxG6iPkjj0zHmTNntEnmpaxztOBQlQuZSsTHpmegxltvlNdjkYqmJaIOTEVqnQjz1C1oMKJtmQKpE1kndQy0iFzV1RI5/hPwu4BDU8320lH5qayQ/ZjzOg1Fd2CyOy/QvnU/si4iVWP0SduPdZ4QQq6CHhV0iczHjRuH554r0SaZN6P1DlNXjlJXJsbKfGomMqqqjbTLOKxq+hhNtW4kJbtRJ/Nl47Q1aCpFqZE2kfW+vMLIVI0S1twqIMlYbGn2qQ57gPVqG9lukwul+SK847CwCPDUmhJcj+qqDLhLN2n16oqSkFR0hCkaQkiPE3c59AZvDTLSDaFW4pqZVYPq9m5WKoGvmGckTobMhTtimxZU5nuQvd4NFZQHSCrajJwhxkJqIdzw4JCKzBPTspXYv6ZH1XXVqMkyLjBRqMkLjdpDUP05yLQOIaQb6FFBl5x5fX09li4t0SaZl7KOI9FwqEBKVB1Mu3SNls3z4MmyiLcicZhV2sOQi4JLF/cGrw/ufPMCY0/GJiPKl9FBOdMrhJBrQ48KutwAffXVPbj99tu1SeY7dVNUi4YrdHEMTBXIqCoNyWlH0KSLr8anW1BalaHl4DV8peqikB2M4E1SM+EqmxdsV1I9yMZEQ/THprvgqd2Cal+wrEswh04I6SZ6POUiAp6TM1ebOvuES2i6xUTSLn5LTtuGZBdO5BtRfZoH2bXlwRRJE5C93i7lMQ6rJG+eZmyXF/bEiyb4pUBh++mSwIgirRSuDtQnhJCu0OOPLfY4EgFfk8cP5WmXamQ2WS4OhBByHYm7m6K9hZbNpe3eDCWEkJ6Egt5p9OfdU6uyUWc+FkkIIb0A56dcCCGkj8AInRBCHAIFnRBCHAIFnRBCHAJz6FG4/Ic/4A9/vIKvvvoKf4pxhr72NXVVvOEG3HzTjfj6zTcbpYQQ0vNQ0MP46qs/4cu2Nly58pVR0nFuvPEGfCMhQQm8UnlCCOlhmHIJo6tiLsh2sn10Il+926upK+wxV6irRvU18OpjQvooFHQLkmbpqpibyPbSjh3yYySf9Q2OpPtILUeFqxSr23vzJiEOhoJuQXLmkTSjcsZoLHk9SuT9ejGyt541FnTs29GNOdzhLwEj3Uao4QkhfQ/HCbr5Wl1z6gxyAzSSYchetg1PjkkwltvHth3xQUVKwECjociaetF/fWp9V7rpZ6pNFlclLbVglgdSDLK91bTDXNbNtAP1A9uo9db0hNamZXt5/43UzauBv2y8tp21b9H7bu2HXq73PawfxvGEHKM2Ge2a+zem0H3LstG2TNbjCDE8IaTvwQjdQuTTLMewZvIE/Pjxmdhw1CgSrlyA99mZyJw6AZnLDhuFQWyfitEs7ZJsXxDWUJQLX7Ip9Tr+Jr/+HvVNGUaJQoTXmxl4dXBdlge5MXPcicjZb7xiWP2rkO0iXlKmxDHPh6RkY1HEVHsjpb5v3X3pCFLKQ4XVxK7vuoDnAtJ/7fUIZj9kOgK3T3/dceI8r1ZWkWW+M96LHFj2r9WvAPJC7zvU5MlL0fT1kmYJnoPhSEn2wW+pS0hfgoIek9F4+uBhvDR/mLGs8/m+YuxOWY/q/YdR/ewEo7SLKJHORYUmakFa4PclISVMJ3VbvNxA5Jpa5lfCf8pYW4NcM2pNzlVLHUMEGZs2I9tYlgsPIvL8SpALbdIZtn33oXTqeJwoDLPgC4wsxqNUXaxO+I3ycCL2H275J+IffMPl2Hx30D2KkD4OBb0LnHz3Ah4YM8BYuhokOgYqwl/ypaVn7I0zTL/SwBTY1ojAtUki8g5gCHLXvE+j9N3A12yRWBHz8hTd51VNoRcAQkh34ThBDxE7NV0LBtx2Ec2n9fnTp07qM+2RlIIknz8kkvTkS3Qc+T71hvX2Rhhii+cvK++mHLEHuXaCrPoJq1OThoh3qLlItL4DLrj3H0F21fjAI4/ayCKQbtJtBKMSsf96rC4DstOCZ8M6UpBzhaxJRtuncKLJhSQ+RUT6KIzQLcivPkM4txMLJk/AzzY2w/vsBEx6aifOqeI7H87FubI5WPDETGy/dA8G6bUDRLQjDEmCq+kEgpkGP/yuyOhYbhRqPqmmy5ESUi3NIjcSU8tRV+SzpFbs89odoskPl50gi2m16dQUuCmaC58aGQT7at/3IJIz10VdblpinhsZgVRRtRJgo5od1v1r9eXC4Q1JAWWg2lh3hzbCOGg+OdQBw25CnAx/KWrhd1/+/qqfQxfkF6Pf/MafGUtBNLHG5qAA2SB1Vg/zhoql3Khcn4SDUdIb14y6QkxuLozZ355GnnKpTg/LzxvEWkdIX4ARugV5H0t3EK2dRBWphhhPk+5D7gf43FhIMSd9GEboYVxtlB4tOo9L4ixCJ6SvQ0EPgy/nIoTEKxT0KPD1uYSQeIOCTgghDoE3RQkhxCFQ0AkhxCFQ0AkhxCFQ0AkhxCFQ0AkhxCFQ0AkhxCHwscUodPQ59HiEz84T4kwo6GFczS9F4xH+upUQ58CUSxh9ScwFOVY55qiIOYXVt7OXI2+r7PIrhcn1Ic6+Y70ZCroFSbP0JTE3kWOWY4+kBZXlPrjXR5ptENJtpJZr3rCreSG+aijoFiRn3v3oRtOTxtyDJa8bRdeSS81orD2MOnPyXTBWBHnr2WnYfsZYMLA9drHCc7nD/EUJ6X7Gptt41pJO4zhBN51szKkzyA3Q7sfeaPpa8/4rz6Puc2OhA9gde0utR53Q4caSvLrW6r5fj0Xq/FrTG5LuCJx7cVgykSG1WR4YWsv2hRY7PXNZjQqmGnWt24jJh6VNbV/WYbqxDzHO1t2ewvoaUdfct7Uf+jHpfQ/rh12ZTGa70j9LefC8GO1bzoFpzRdJaPuBNmzbjnGe1P8Nls/CWj/i8wqcU+PYtSl47uR1xdZtrMuxvg+h9aRN/RyHfEcC512RmomMqurgMukSjNAtRD7N0or3NxZg1lO5mDV5Jta8p+ea33p2DhY8MwHjn1qFNU8+gPHPHMZlnMX2xatQWTYTmWkPYFLJG2rrGHyyF0U/mYJJKnrPXrQXp1WAfHrjFOTsNCPq4yibugKNEjhfuQBvyUzkPJGL7OmF2GdE160frMOCnxRg/uwJmLX2uOqD4pZhGJU2AaMG98eI+ycg1WWYWX92AEvU/jInT8E/1upFVuye5PGLTd0w+2RLQ1EufMlJxpKO1M/Y9DGaNlksqkXIvJkBj9e6LA9yowqaIPZ1UleMrg3j6/1hKR8lWmLTF9i77EP8UaX9oiS9D01unEizCo6JEp48H5KSjcUAInhid6e21ZyhzH7IdARuX6lqK0rfRETTPMiuNetXAHnWfdcgN3AOKqKanDQUjYcnK2gCrr3zPWrbMc5TUylKsVmvX+uGL0+EU9UvtEbBLTikzqE733DB+tSvPk836uRYI85N+9h9HwQRcLEJbGrS7Q4T53mN45DPyofSwHdhOFKSffDbnBfScSjosTi1FSu/mIMdL1Zgx+5HcfqFXZqnKHABdz5egbmfHceg53Zh7tfPqhKp/yYwfRuqaw9j4Rfl8HyiVbahGRsKDyP1Fwfwmorelw+twJraNgydPgfYc0DfR+MBvKkEedSNwOXa57FvxHpU/rwCnqWDsWXLG1obL69sxezt67BxexVmnHoeu/XO2XAB+/77ToxccwDVBw/gv6cZxV1FCaj8kYa697fA70tCStjftGYQHfAT1SNof9MpY60SukC0lquWOoIS3nwlcOvdcJklah8ZEf6o47CwCPDUhl48RHiwaTOyjWUdJSxTx+NEYZhxRiCqHo9SdbE6ETSEDcV/AijabElNhe9bCW7APtC+X3Khqa7KgDvcTKTdtm1QwlxhtjNkLtxZNaiWaNkaBUs6TZ2FiWa7aj/+gJF3KAF/WzXJhTQC2++DOqvl6UhVF1b9AmkSHAmEfhdId0BBj0Gr7zg+en0VcnLmIGfBTpy7dFEXbtyDe1wJ6v/BGHybVmAwAncOl/IEjLxXSe6/66WRnMW5m0ZjZD996c6R9+DcZ6rl26Zhxu17UaW+442/fA/p2aO19SdPHMPJ3YV6P15QF40vW/F563F88NEvsSZXleXkY/fZy7gYNcXyIRrPP4hRIX3tKhLhqmg43N80XCAsJBUFo05tCmxrRJbaJJFm+7RsnqeiWKvAdQJDeKK5HfmaLSIpYl6eoiJWvX/hYtXtaBFySnDUcU2Qi4FPE3dJp7kKgyOfBm8NMtLDPlMDfcQT7TxE+T6Y+PzqEmwiYl6KFHO0YR3JkW7BcYJufvHM6Wrod+tgDEpfjMrKbWraBc+eAow01sWmFY3vKHkfaixG0B/9L53FWeM+5OfnLmDobZIaSUD6o6Ph9azAvsYHMdlIXw/49mCM/KmK0KUfW/eieuUU3NpvAAbdNgXPVEjftmHHnr148m69fiQDMai1WUvr4EozPvpIL22PJDWEDhE5hSdfItzwaFgJwvrSEIEwSRzmgr+svHtyo75SFSFmB6NPA9lHjZZWsCBpmTIgO82s60FuVOFxwb3/CLKrxgfy29rIIhCxSvSszdiTlAKEpFHqsTpk30aErBG+zmDIJHU5VMcXno5qt20bmjw4ZNZX56FURf6ZxkUsMS0bPu8WHKpyBcq0Ol30Y432fRBchV4txZYauM+gLlrqXCcZF2O5iAQ5hRNNwXWkazBCtyC/oAxhzBzMPVWMzCeKsWx5AXLWHjNWROMA1jxdgiVPzIF3zCrMvl0VnduJBZMn4Gcbm+F9dgImPaUifRXhzy9qw7LpuVjy9EzkNU7B/DSJ7BWjpuCBfarOjEdhXg8GZS7C0FeyMEu1vWyx2maPjBMexOyc01gibSwvwYKcVWiUysb+lnibsSFH7W+V9HkEsuaexcqcAsx/fBt+P3Kw1Awh4tgVmhiHDInVENkVGeFqeVIleIGheZ76Q5U0i9xwSy3XcqXB1EroTbZO0aSEzO4RSss+AjdF09QFZpM3GMnL/YAowqMjOWld1OXmIua5kRFIFVUDsSL0IXNxcJMLpWnmMYrIWfYtYw9vtHUmsn/Jr6v9a/WM89Ru2zYku3Ai36iv5d8txy0XDnVh9GQVGmUqalbnyt9UilStfT29VGp7/yEc+++DFcmZa6IuN1qhp3/M70K1dUxWV42arMwYnw/pCPylqIWrM4g+i+0z1mHo7hW43yjpEq2HseQnv8RkaecWo6wHsDe3lhuF84D1sQVEBH31MG/oH7bczFufhIPRhuLXCNu+XFckzVCNTOOm4DVHznu+GomE30gOEP6Zqv5N9WNhWH15gsWf386Foxuh+Xf3wAjdgrzb5HrSuEpF1DN2YtCKxT0q5oL9scuTESo6zLc88kfim7pylEa513HdkHsbXUz5kFAYoYdxdVF6fGIfnccnjNCjRegSmUs6RW5E91BfSI9DQQ+DL+cihMQrFPQo8PW5hJB4g4JOCCEOgTdFCSHEIVDQCSHEIVDQCSHEIVDQCSHEIVDQCSHEIfAplyg45bFFPqJISN+Bgh6Gk39YxB8REeJsmHIJw8m/EpXjiu7wLz8Nv4o3IToMeVlUdKs4QnonjNAtSJrl92127vfO4s8Sbo5Mv4ihg9ik9fDbEXsvPfwOFkK6AUboFjrl+v/ZcXz0mTHfRT7/4CSsJkOXPzlmuPUfw+nWaJG0lVac/qBZ9xLtBHbH2eD1Bf0liWIcMk3rNkLiBMcJumkOYE6doTOu/+e8JXi5g84/9pzFwWVbcdJYEi40rMB2nzaHg89MQc6OZq08Ou9hy7I3DVu8jhN5nOLIE+YWIxG7eR5NxxkjLRMoNxzj5Q2HgTJt0s0RQsvDHIUMpI41tRGybO1DB53oY+7T9pgkEjfrh6ZZxqZbTZUJ6f0wQrdg5/rfuGoOMqdOwKTJ07DhAyk7i91PWRyIJk/AAs9Zrfb7G2cadS0u/HgDS6aXYEOJWpc2AZllb+Cy5io0BxtOHcASVXfS5IKAwfOgeycgNW0KnnxxBUb8YhveksLPVb2pU7R2J5mu/0dXqeVieE+tw8+0NgzHItXn9zcWYNZTuZg1eSbWvBcZ6Uccp42fpViwaV6gtW5Luek0L5PphK+70kiZ+E3q/pO6MYJZLlOow3sHSS0PbN8krj3r2xfXWPu0P6ZxWGXuQ3Pkt9jlJalzEuKJSUjvhoIek/ewz3sPlu85jNcOmp6dgzHjxcN4af4wpC+T8sNYm61buo2cvwvV+6WsAhMadhoCq/jkQ/T/qVpXW4GsowfQOOhRrD24DU8On4LlavvXDq7DjEFGXZMbB2PQbcdxWsT7VlVv/wFtX689lYDtdeoCMmaRWl6B9OEFeElrYxFGyXantmLlF3Ow48UK7Nj9KE6/sAvGtaJT+MWybZiN500gym3HCV8jGP3Gcnj3W2zXpF4Qy4hAbO0McbXzOg0SfZ/RjikY1eeiBj7427VeI6R3QkGPyYNYuLgVKx9WEfezO/H+F0ZxFD4/UoL5s8WFvxi7RIhNhv8tUv9KZoYhZ09nLOoGoJ84F7Uex/ZnpF01vfiGvioKrb7j+Oj1VXrdBTtx7tLFTqdk9BRM0Fg4gIh5h53wRVg75vCuRc1Gm3VFZuysGzKcKDS2t0TVYnQMy0VA/Ex1Yu2zBX5fElKswxCFiHlqk9vYvxp1JBsrCIlDHCfopjCY09Vy6/gS7FAR8KaHjmPBmjAxDbm3+AY2PN8P87dvQ2XFCswUg+gO0BblPuzlUwdw8C+m4IFbgXPVz6Pxft31f9P80UYNgz+2wZpU6XeriuzTF2t1Kyt3wbOnACONdVEZkgRX0wmYsXHL5lL4ikwT4SCdcsKP6fDeEcQFPijALbWeQP8042TLZxy4sMTa56evwWNjvSZRe1LycH1B6jTpsxp+dU4Cx0tI74cRuoUI53vJdc8uwLLlJViytRkPZwXFdFDqTJwrmYYFy9V6LYd+F0besRfLni7G/MfXofEmvV50BiN1+lksy1bbP10SyKFrefmpU/CzjQl45oVpUHqOQSmjcXJjPpY8PRMLqltV3G4yGpP/eify1IhgyRNqn1I0Zg7mnipG5hPFqt8FyFkrrv+hRDr8D0dKspFqUFG4lqowI2DTEb4LTvhRHd47xDgsLELA7T63SQm1sSYq0fYpIwt1HK7CSOPksfnuYLSffwIuS4QuF4SMdD75Q+IHPoduoa/4idp6iIroyXPo6dWY3FyIg/Os0ldv6wzvbCR9w+fQSXzBCN2CvO+kL2B7nKmFcPtyseh9Y7mP01CUa5t2IqQ3wwg9DKdH6U5y+CeEhMIIPQx5eZWInhMxX85FCHEmjNCjwNfnEkLiDQo6IYQ4BKZcCCHEIVDQCSHEIVDQCSHEIVDQCSHEIVDQCSHEIfAplyj01scW+RgiISQaFPQw4sn1ny7+hBArTLmEEU+u/7Fd/AV5wVTQuo10P2J/Z7WtI+R6wgjdQry6/tu6+CvEvCEXm8PenEi6F76VkfQeGKFb6JTrf0zOYvuMYs0PtNNO/q3NeP+Tjjj+B7HvdwsOVbngpphfY8YhM6sG1RbTakKuF44TdN18ITh1hs64/neUTjv5v1uBZQ2dM42z7bfm0BNm/Gx1xDcc+0X4I538w8pk0lzy7V3/I4lez+rQL/NBZ/6ObSMEl2Uba0rJutyV9uS973KcBpp/qtk/1aL1/FlSWWPTM1DjjXYuCOk5GKFbsHP9t3XQf70YC9auw4KpUzB+7Bxs/0Qvbv1AL5s0eQ62nNbLBDsn/8//pRiZU8WtfwKyF+3VjJwbV6nlZw/g9MY5usP/KsNt6MoFeEtmIueJXGSbrv8WbJ/CsbFPE7s1zZU/xGvTzsnfLKtAhvpXIes0cwt71/9QREjHw5MV9AmtQG5EnllPB1Wo9ZKq6Ng2naMjfY2FEvc8H5ICDkb1WF3m0s9FuPdokrpwGgbWhFxPKOixiOGg3/jZXZoT/5GSwdjXIBZ0x7GxuBWz94k7/zbMHarXC8Hi5H/r365A9X5x6z+M+QnbUKfKRi1Sy8umYOj8bbrD/yLd8u5y7fPYN2I9Kn9eAc/SwdiyJbZRtD32JskaWiQqUWcHnPzbrXsKJ+BGhSXVo9m8Vb0WEDxfuWHMXGbau7W/TU2eGRlbTaETkeSK0d8YfbVvL4gYXGDTZmQby4TEAxT0GMRy0B985wj0kxnT/OfMcTSOHI1R7Zoe6U7+rR9sQ9HjupP/RgnZY3DyxDGc3F2o9+OFN4EvW/G5sa7DRDFJ1kSvo07+nanbHp2MaLWRhc1+tXRHQJxFuI0V7fQ1WnsaalsZPaxKNZY1xmHVJhh+pZb9ENKLcJygm3+k5nQ1dMpB/9YBGHSyGVqmpfUkTv67VhpC0Mn/LPatPIb710m7FZg/xqhgciX0puiAbw/GyJ/qrv+VW/eieuUUzTw6JmFpgIb19ibJnXHy71jd4UhBKXIt6RLZN7ImBfbtKvSiLsujGU/rtdrfJiqp5ZbPO5gK6cxxheJBbh5QERg9BJE2k4okLRSWcrFJbxFyPWCEbiHCDb8DDvoBbpmAGX+9E0VPFWDWMx9iwCijXBHp5K8E+t4PsWFBMRbMLsC+L4I+/rhvCkZ6cpGzuBjzN+r7G5S5CENfycKsp0uwbHEuluwJvWka6eKvGJIEV5MSGjWr5auVoAUi2bwaQNz7i+qR2Akn/47Vldx1BVymk76aJNoNf3QycZ4h6trNxY5t0xk6c1whNPnh2mTzCKKK2lPL7J8aavDWICM98gJASE/D59AtxKufaDSfUPM59ArMw+ph3tAUwqdbMHl9Eg7aRKKkM/A5dNJ7YIRuQd6PEo9E67dEqa6yedj9H0YB6Xbk5qmvqJBiTnoFjNDDiLconS7+hBATRuhhxJPrP138CSFWGKFHga/PJYTEGxR0QghxCEy5EEKIQ6CgE0KIQ6CgE0KIQ6CgE0KIQ6CgE0KIQ+BTLlHoDY8t8hFFQkhnoKCH0Vtd/+nwTwhpD6Zcwuitrv+xHf51uzWrrRohpJPIC+ssloPxCCN0C/Hg+m/r8C9mDt5MiwMQIaQrmG8ovZpXN19PGKFb6JTr/2fH8dFnxnx7dMHJPxp2fWzw+uDOp5gTcrUkpmWHWB/GG44TdNMgwZw6Q2dc/895S/DyR8ZCe3TByT8akX0UNx4XkqzWchKxm+dg6hY0hrjVy6Q71oe62OtDzdAyvW75/1BlVod/69BUmw9tI9xV34qsC7RtOhYZbZjbSB8CBtHasQT7G2xXTzOFGEmHHbe+Jrr7v13f7Y4/mrm0VjeivTz8g3V/Mml9kfemh5aHH0t4uX4e6i3rQs95e+cruGxsHzgnCptjF8I/u1ifZRD7cxztXFrb1L8P5v7tz4Ng+71RhBy7InzZul2gXI49/FyYy0MmIRseHIrymfd2GKFbsHP9b1w1x3Dnn4YNH0jZWex+agJ+trFZdyKaPAELPGISDby/cWbAyX/W2uO4rMqiOfm/9ew0bDfc+4PzdvsLJaKPn/rhS05BwPtZvpxioWbasu2fi1HzvNq8eGfqXppe5KgLQKJRLlNdkQ+l6gtvllnrFv43cf+pDvzRt9R6AO0d4Eqk0jzIrjX21Y7Jg/xx6U7/xj7FsUj++IfMxcGmI0gpDxMPESPNF1Tvr5WWzfPUn12o43XAIq7WbVkTxf1fzlO+5TyJX6jqi93xh+/bRHdFCj8vS/BP2v4qkKH+ae2rz0AfwBvL2v4y4GsWCRERmwesN8rVdsgLCqy/rDSwTj4j6WNnzpftOYly7F1D+j8eniyx5tPbq1Cfsohne+dSxFf/Ppjfm1M40aSfI6vPa9TvTTvIdtXpxjGq85VdNS/qxTlIO8bjvRwKekzewz7vPVi+R9z59+LJu6VsMGa8eBgvzR+G9GW6a//a7MFa7ZHzdxlO/hWY0LATjaosmpO/PXb76xxBse0IwagxtcwPf9MpozycccjMqkG1Jh4tOFQFZKcpiaqrRk2WO0LwxpZ9HGawLLTA71N/rJY8f6ggivCKSKVjtRgwqz/yySJOATG0oAQptyobFYUuo0DHL/Zxw2xyn4Eo1eL+Lz6gTaVINY5fs+XrpHF11PMSlRrDZFpN3kwjTysi5kdpmlGenKtq+eA3hCepaHPg/HblfNmek3aOPWi6rYS0XS9W1X+4UWHJOY/Nd7ebtvCpfqc2uUPv+4QHJxrtfW/kohe0LpTvsY5sZz0Wy2cvWI8/rVSzanQCFPSYPIiFi1ux8mEVcT+7E+9/YRRH4fMjJZg/W5z8i7HLiL47R+f2Z0dUUYtAxLwUKWZ0rSLGWMgfqc+roqJPX4PHpYu4Fv0lDzdqdAPSthInnxIXf1WNOhbdEzUUFRHmq1HB+nChl9RTBjLDLySBqFU/Tmvkh6xg1KdNdhePdrA7L9GxROjp1ZZ0jaVcm6KPCkJo93xFOSdCjGPXo2l9Cjlf3U34BbSLZtu6cbfe37oi6+UgCe7A6FGfAoFGsjvwnQgd0cU3jhN064cn09Vy6/gS7FCR9aaHjmPBmjeMUoOQ+5NvYMPz/TB/+zZUVqzAzNuNYpMwJ/8AV5rxkSUXH3N/dljMoIWx6RkqKgkO2aMi0RCCuXcxOo6J5BZ91ahUIwCXYYis3UAqixzGylA3Mu8qQ1kVoVqGyi2bS1WEn2mMJsz0jVeJSJKRJkhBqSW/K/jK56nhfTBqNZG27Kzgorr/J6lIsMpIv1wNNuelcwxHSnKNlu6yw2+JdDt7vqKdk247dg3Vf5Qi15q3Xl+qLhiTYgqzq9AwCbfksu3Nttv73kRDT52Urg9u1zEksk9CSpwqPCN0CxHu+ed2aq78y5aXYMnWZjycFUyXDEqdiXMl07BguVqv5dDvwsg79mLZ08WY//g6NN6k19OwcfIfMWoAtiwowILHV+Ds8BFaWaz9mUQ6/IsgBIfoSC3Xc63mcNJ688fKkLlwZwVTANUqSoxNIiZm+VBalY2FZpQjudxNLku6IPaFZGyZ5LBNJ341PFZt1clQWkuJyGghLDLV2ofWR/MC4Ud2yPBeQ22vpYzMobcMoWVIrY4d2vDcxv0/ou9hN1hDkDxxtGOzOS9RsaRc8swnkyR1UgGXJW1g/cySXCcC23TqfK2Jfk5aOnXsJtHOQWT/Jd/dkcf+JMeuiXryBORNVNv53LbnMOr3ph3Ct2vv+6khox71HZvYkRFSL4TPoVuIBz9RWw9R+QPvgefQ9ZtYvfAZXXX8k5sLw/qlItipfizsQholEtVWEbAqyvm9Vuflqtrt9nMS+xw4hV77He8gjNAtyDtTeju2fUwt1CKRyDRHd1KP1WXt3fRzKHXV8EW9V9BHzkvMc+AQ5GZ7mQvuOBVzgRF6GL05Sr9eDv8StcjwXW6WRT690ne51ucl3qNF0vNQ0MPgy7kIIfEKBT0KfH0uISTeoKATQohD4E1RQghxCBR0QghxCBR0QghxCBR0QghxCBR0QghxCBR0QghxCBR0QghxCBR0QghxCHEm6PIKzztCfRwtaP6BHbCmIoQQJxKHEXoSknxB+6kAn25BqU+tMxYJIaSv0eOC/tvf/haVlVu0Sea7gsulGxpbES9NV1a2sUQIIX2PHhV0EfBHHpmOM2fOaJPMd0XUU9KVcIeY0Mo7qV3IHBbmqag5uxhuJZoLjJGyCTiYmOUKcUK3lIe+Wzx0O3OdvN400umlHotMZxRp0+I+Qwgh15IeFfSqqr0YN24cnnuuRJtkXso6TdJcuF2lWG2Krrx8P9w70XTxMbxFxeoqdzOQs1+WK5BhGvOKe4sIr+bPaHqRVgB56RbPRXFm1+tfU9NcQgi5CuIwh66jmSGL27pEz+W+CMcYzRw44CV5h+6v2HTKWBuG/wRQZDUeHoeFRYCn1oitxVA5OcU2Px/wbFRTRLQu3o3dYoFGCCHt06OCnpU1DfX19Vi6tESbZF7KuoRmu1aKyrrX4HG5I1zgBc0J3YjQtamLfoiSn4/mYh7chxjllrdvQksIIdeIHhX0b33rW3j11T24/fbbtUnmpaxriNs6UJpXCld6pFAnDnOp6LmDApuUApTNs6RYrD6Ren6+Sz6DzKETQnqQHk+5iIDn5MzVpq6LuU7iPDcykt1YaOfnmFqOuiIfco10iExRTZQlNbLJhdI0s24usMmron65GZqLGvXPbCe3CqjJC7YVTLnkRubxCSGkB6FjUUxE0MuRtL88RKjl6ZbVw7w0TCaE9Cri9qYoIYSQUBihE0KIQ2CETgghDoGCTgghDoGCTgghDoGCTgghDoE3RaNw+Q9/wB/+eAVfffUV/hTHZ+hrX1NX7RtuwM033Yiv33yzUUoIcSIU9DC++upP+LKtDVeufGWUOIcbb7wB30hIUAKvVJ4Q4jiYcgnDqWIuyHHJ8RFCnAkF3YKkWeJSzK+04fIVY164rJaN2XDk+OQ4CSHOg4JuQXLm8Ucr3ip5FCuPBiPvc55c5G1tNpYiic/jJIS0h+Ny6PKiLCvyatuO0vq7S3F3A7TVW4C8c4XYkTPMKBFa4X16Dpr/fi+edBlFFuRGab9v3mIsEUKcAiN0C5FifhwbfjIFmZMnYNLkmVjznhEFv16MooptWDB1CsaPnYPtn0jhWWxfvAqVZTORmfYAJpW8oWRVeANLppdgQ4mUT0Bm2Rt6OuSTvShSbU9SbWcv2ovTKmg+vXEKcnZe0LbClWMom7oCjRJMX7kAr9o+54lcZE8vxL4zehWgGS//4ut47FGrmAv9kF4wAUe2HLBNvcTzUzuEkOhQ0GNyD5585QCqDx7Gaxt/hLdePWaUA2+eHozl+w7gyMbRSlQP64Wn3gSmb0N17WEs/KIcHk3oFZ98iP4/3aXKK5B19AAalRBvKDyM1F8cwGuq7eVDK7Cmtg1Dp88BDv4Sn8s2/+cw3nxoCkbdCFyufR77RqxH5c8r4Fk6GFu2vKE1i3Nv4q3v/AipdsH28Acx6p1jal+EkL4CBT0WKjKuW56LWTlzkLNkJ04bxcLgO0egnxJbuO7BqFNncU4rHYE7hyeo/xMw8l4VP/+7VqjE9W+R+lcyMww5e1bgfhXNn7tpNEb209bizpH34NxnKjK/bRpmDNiLg2fa4N15DOnT79HWnzxxDCd3FyJH+vGCumh82aqLvoreL/frh69rtcIZgEG38YkWQvoSjhP0EMu5TuTPbTm6Div7FWBH5TZUljyKoUZxCB8cw/t3DsUgY1GnFY3vKHm33UDoj/6XzuKscW/y83MXMPS2AWouAalpg7HvlXWo+8+ZmDlcXz/g24Mx8qcqQpd+bN2L6pVTcKusuKUfBvzmgi7uEVxQF5nBStYJIX0FRugW5GZhCMPvwbA9JViwWEXpG4PpFuH09mIsWV6AWc+14pmiB43SA1jzdAmWPDEH3jGrMPt2oziCezC/qA3LpudiydMzkdc4BfPTJLIHvp72KEb9yzZg2jRdtBWDMhdh6CtZmKXaXqb6smSPkWe/9UGM//1eHP5MXwyh8QDevHc07jQWrUQcJyHEEfCXohZ+9+XvO/Yc+uvFyD5dAM/jg40C4Sy2z1iHobslpdKDvLcCmbtHY8fzE2BkcIArzah8vByDNq5DeqAwiPxi9Jvf+DNjiRDiFBihW5D3ncQd3yvG2ju3Ys3rwXz56a0r0Pz3K2zFXIjL4ySEtAsj9DA6HKXHKYzOCXEujNDDkJdXieg5EfPlXIQQZ8IIPQp8fS4hJN6goBNCiENgyoUQQhwCBZ0QQhwCBZ0QQhwCBZ0QQhwCBZ0QQhwCn3KJQrw9tsjHEwkhFPQwnOD6T3d/QvomTLmE4QTXf+k/3f0J6XtQ0C3Eg+v/5ctWoW5Ty8ZsGHIcdPcnpG9BQbfQXW74jctHI7syuut+TFqb8f4nUaLrT7YhL3eX4Y6kOLNLLW/T/EjtoLs/IX0Lx+XQe4Pr/+UzJ3G63wjc+V+Ngs5g+651xZWT2PD4VozYuAKpltfiiut/zilVv2CEURKE7v6E9C0o6BYu/uclY85EHPsPY9DID+F96wKQVoJ/LnoQXxcX/mX52P1/+6P1fD/MXluOh28/i91PzcGWU2qz/7iA/vMPGKLcivc3FmOlT0Xdpy5i1IptePp7CZoJxb6iRdjgu4iEG+/C7F+sw9BXJmBJ9QV83jYAt/6F2vRHK/DaotHSEVz2FmKWCP38cIf/ZmyYvg7Dtpcj3Ua7+/8XCjohfQWmXNojwrFfiautC/9gzHjxsObi/5JVdE9txcov5mDHixXYsftRnH5BT5mc/kUB9v31Oq1+9f51mDEIGLVIbb9sCobO36aVm2IuNB49ifFjw8VcGIYHxhxD47vGIiGkz0JBb48Ix/4YLvw2tPqO46PXV+l1F+zEuUsXIY6g584lIPWhsLRKLK4koH8UB6IBtw1EG9PlhPR5HCfoVsf/zqRbOkNUF34b+t06GIPSF+t1K3fBs6cAI6W833k0nmjVK4VzJfKmaL9+bTgX5apx4TNgEO39CenzMEK30FE3/Kgu/HaMmYO5p4qR+UQxli0vQM7aY1rxyPkrMGCj3saCnALsMx9duW8KRnpykbO4GPM36nWFkeMfxJsHg8sBrhyD9/XRGGVj7093f0L6FvylqIXu8hM9XTkNawbtxNr07rR7u4B9T+Tj8+JdyNFSQDqnK2eqfW1W+4rMx9A/lJC+BSN0C1fnhn8Ma6bOxIKnZyLvnWl4Oq27vTsH4OEXCtC8ogKnjRJ8UoGy0wVYHsXen+7+hPQtGKGH4RTXf0bnhPQ9GKGH4QTXf7r7E9I3YYQeBb4+lxASb1DQCSHEITDlQgghjgD4/4K1FKmi/eQfAAAAAElFTkSuQmCC;" vertex="1" parent="WIyWlLk6GJQsqaUBKTNV-1">
          <mxGeometry x="480" y="790" width="372" height="228" as="geometry" />
        </mxCell>
        <mxCell id="NsZ-KhTiiolm1iS4KSTE-54" value="leave()" style="swimlane;fontStyle=1;align=center;verticalAlign=top;childLayout=stackLayout;horizontal=1;startSize=26;horizontalStack=0;resizeParent=1;resizeParentMax=0;resizeLast=0;collapsible=1;marginBottom=0;whiteSpace=wrap;html=1;" vertex="1" parent="WIyWlLk6GJQsqaUBKTNV-1">
          <mxGeometry x="320" y="690" width="160" height="86" as="geometry" />
        </mxCell>
        <mxCell id="NsZ-KhTiiolm1iS4KSTE-55" value="+ field: type" style="text;strokeColor=none;fillColor=none;align=left;verticalAlign=top;spacingLeft=4;spacingRight=4;overflow=hidden;rotatable=0;points=[[0,0.5],[1,0.5]];portConstraint=eastwest;whiteSpace=wrap;html=1;" vertex="1" parent="NsZ-KhTiiolm1iS4KSTE-54">
          <mxGeometry y="26" width="160" height="26" as="geometry" />
        </mxCell>
        <mxCell id="NsZ-KhTiiolm1iS4KSTE-56" value="" style="line;strokeWidth=1;fillColor=none;align=left;verticalAlign=middle;spacingTop=-1;spacingLeft=3;spacingRight=3;rotatable=0;labelPosition=right;points=[];portConstraint=eastwest;strokeColor=inherit;" vertex="1" parent="NsZ-KhTiiolm1iS4KSTE-54">
          <mxGeometry y="52" width="160" height="8" as="geometry" />
        </mxCell>
        <mxCell id="NsZ-KhTiiolm1iS4KSTE-57" value="+ method(type): type" style="text;strokeColor=none;fillColor=none;align=left;verticalAlign=top;spacingLeft=4;spacingRight=4;overflow=hidden;rotatable=0;points=[[0,0.5],[1,0.5]];portConstraint=eastwest;whiteSpace=wrap;html=1;" vertex="1" parent="NsZ-KhTiiolm1iS4KSTE-54">
          <mxGeometry y="60" width="160" height="26" as="geometry" />
        </mxCell>
        <mxCell id="NsZ-KhTiiolm1iS4KSTE-58" value="vacationReques()" style="swimlane;fontStyle=1;align=center;verticalAlign=top;childLayout=stackLayout;horizontal=1;startSize=26;horizontalStack=0;resizeParent=1;resizeParentMax=0;resizeLast=0;collapsible=1;marginBottom=0;whiteSpace=wrap;html=1;" vertex="1" parent="WIyWlLk6GJQsqaUBKTNV-1">
          <mxGeometry x="520" y="420" width="310" height="216" as="geometry" />
        </mxCell>
        <mxCell id="NsZ-KhTiiolm1iS4KSTE-59" value="- id(идентификатор): int" style="text;strokeColor=none;fillColor=none;align=left;verticalAlign=top;spacingLeft=4;spacingRight=4;overflow=hidden;rotatable=0;points=[[0,0.5],[1,0.5]];portConstraint=eastwest;whiteSpace=wrap;html=1;" vertex="1" parent="NsZ-KhTiiolm1iS4KSTE-58">
          <mxGeometry y="26" width="310" height="26" as="geometry" />
        </mxCell>
        <mxCell id="NsZ-KhTiiolm1iS4KSTE-68" value="&lt;span style=&quot;background-color: rgb(255, 255, 255);&quot;&gt;-&amp;nbsp;&lt;/span&gt;&lt;span style=&quot;white-space-collapse: preserve;&quot;&gt;employeid(&lt;span style=&quot;white-space-collapse: collapse;&quot;&gt;идентификатор сотрудника&lt;/span&gt;): int&lt;/span&gt;" style="text;strokeColor=none;fillColor=none;align=left;verticalAlign=top;spacingLeft=4;spacingRight=4;overflow=hidden;rotatable=0;points=[[0,0.5],[1,0.5]];portConstraint=eastwest;whiteSpace=wrap;html=1;" vertex="1" parent="NsZ-KhTiiolm1iS4KSTE-58">
          <mxGeometry y="52" width="310" height="26" as="geometry" />
        </mxCell>
        <mxCell id="NsZ-KhTiiolm1iS4KSTE-67" style="text;strokeColor=none;fillColor=none;align=left;verticalAlign=top;spacingLeft=4;spacingRight=4;overflow=hidden;rotatable=0;points=[[0,0.5],[1,0.5]];portConstraint=eastwest;whiteSpace=wrap;html=1;" vertex="1" parent="NsZ-KhTiiolm1iS4KSTE-58">
          <mxGeometry y="78" width="310" height="26" as="geometry" />
        </mxCell>
        <mxCell id="NsZ-KhTiiolm1iS4KSTE-66" style="text;strokeColor=none;fillColor=none;align=left;verticalAlign=top;spacingLeft=4;spacingRight=4;overflow=hidden;rotatable=0;points=[[0,0.5],[1,0.5]];portConstraint=eastwest;whiteSpace=wrap;html=1;" vertex="1" parent="NsZ-KhTiiolm1iS4KSTE-58">
          <mxGeometry y="104" width="310" height="26" as="geometry" />
        </mxCell>
        <mxCell id="NsZ-KhTiiolm1iS4KSTE-65" style="text;strokeColor=none;fillColor=none;align=left;verticalAlign=top;spacingLeft=4;spacingRight=4;overflow=hidden;rotatable=0;points=[[0,0.5],[1,0.5]];portConstraint=eastwest;whiteSpace=wrap;html=1;" vertex="1" parent="NsZ-KhTiiolm1iS4KSTE-58">
          <mxGeometry y="130" width="310" height="26" as="geometry" />
        </mxCell>
        <mxCell id="NsZ-KhTiiolm1iS4KSTE-60" value="" style="line;strokeWidth=1;fillColor=none;align=left;verticalAlign=middle;spacingTop=-1;spacingLeft=3;spacingRight=3;rotatable=0;labelPosition=right;points=[];portConstraint=eastwest;strokeColor=inherit;" vertex="1" parent="NsZ-KhTiiolm1iS4KSTE-58">
          <mxGeometry y="156" width="310" height="8" as="geometry" />
        </mxCell>
        <mxCell id="NsZ-KhTiiolm1iS4KSTE-61" value="+ method(type): type" style="text;strokeColor=none;fillColor=none;align=left;verticalAlign=top;spacingLeft=4;spacingRight=4;overflow=hidden;rotatable=0;points=[[0,0.5],[1,0.5]];portConstraint=eastwest;whiteSpace=wrap;html=1;" vertex="1" parent="NsZ-KhTiiolm1iS4KSTE-58">
          <mxGeometry y="164" width="310" height="26" as="geometry" />
        </mxCell>
        <mxCell id="NsZ-KhTiiolm1iS4KSTE-69" style="text;strokeColor=none;fillColor=none;align=left;verticalAlign=top;spacingLeft=4;spacingRight=4;overflow=hidden;rotatable=0;points=[[0,0.5],[1,0.5]];portConstraint=eastwest;whiteSpace=wrap;html=1;" vertex="1" parent="NsZ-KhTiiolm1iS4KSTE-58">
          <mxGeometry y="190" width="310" height="26" as="geometry" />
        </mxCell>
        <mxCell id="NsZ-KhTiiolm1iS4KSTE-62" value="" style="endArrow=diamondThin;startArrow=classic;html=1;rounded=0;entryX=0.823;entryY=0.026;entryDx=0;entryDy=0;entryPerimeter=0;endFill=0;endSize=10;exitX=0.336;exitY=1.144;exitDx=0;exitDy=0;exitPerimeter=0;" edge="1" parent="WIyWlLk6GJQsqaUBKTNV-1" source="NsZ-KhTiiolm1iS4KSTE-69" target="NsZ-KhTiiolm1iS4KSTE-54">
          <mxGeometry width="50" height="50" relative="1" as="geometry">
            <mxPoint x="640" y="610" as="sourcePoint" />
            <mxPoint x="717" y="472" as="targetPoint" />
          </mxGeometry>
        </mxCell>
        <mxCell id="NsZ-KhTiiolm1iS4KSTE-63" value="" style="endArrow=diamondThin;startArrow=classic;html=1;rounded=0;entryX=1;entryY=0.5;entryDx=0;entryDy=0;endFill=0;endSize=10;exitX=0.175;exitY=-0.032;exitDx=0;exitDy=0;exitPerimeter=0;" edge="1" parent="WIyWlLk6GJQsqaUBKTNV-1" source="NsZ-KhTiiolm1iS4KSTE-58" target="NsZ-KhTiiolm1iS4KSTE-3">
          <mxGeometry width="50" height="50" relative="1" as="geometry">
            <mxPoint x="542" y="424" as="sourcePoint" />
            <mxPoint x="490" y="226" as="targetPoint" />
          </mxGeometry>
        </mxCell>
        <mxCell id="NsZ-KhTiiolm1iS4KSTE-64" value="" style="endArrow=diamondThin;startArrow=classic;html=1;rounded=0;entryX=1;entryY=0.5;entryDx=0;entryDy=0;endFill=0;endSize=10;exitX=0;exitY=0.25;exitDx=0;exitDy=0;" edge="1" parent="WIyWlLk6GJQsqaUBKTNV-1" source="NsZ-KhTiiolm1iS4KSTE-54" target="NsZ-KhTiiolm1iS4KSTE-41">
          <mxGeometry width="50" height="50" relative="1" as="geometry">
            <mxPoint x="320" y="680" as="sourcePoint" />
            <mxPoint x="188" y="850" as="targetPoint" />
          </mxGeometry>
        </mxCell>
      </root>
    </mxGraphModel>
  </diagram>
</mxfile>
